<svg width="276" height="61" viewBox="0 0 276 61" fill="none" xmlns="http://www.w3.org/2000/svg">
<path fill-rule="evenodd" clip-rule="evenodd" d="M29.4162 0.114454C24.2253 0.561989 19.1442 2.18237 15.7906 4.45966C14.0099 5.66883 12.3005 7.50228 11.5561 9.00141C10.9295 10.263 10.7235 11.1268 10.7235 12.4916C10.7235 13.9159 10.9432 14.7861 11.6396 16.1187C12.137 17.0705 12.3458 17.2149 11.9662 16.3447C10.7965 13.6623 11.4787 10.9905 13.9682 8.50527C17.4376 5.04179 24.0029 2.85463 30.9304 2.85463C39.6047 2.85463 47.2037 6.1816 49.4795 10.9756C50.3647 12.8405 50.3424 14.6803 49.4115 16.5954C47.7282 20.0586 43.4602 22.6839 37.4138 23.975C36.3169 24.2092 35.0285 24.3777 32.1836 24.659C31.4256 24.7339 31.9431 24.7493 34.3767 24.7243C37.8266 24.6889 39.1127 24.5532 41.4329 23.9798C44.4357 23.2377 47.9341 21.7071 49.8848 20.2821C52.2315 18.5679 53.8275 16.4467 54.392 14.2919C54.6346 13.366 54.6316 11.6113 54.386 10.6974C53.044 5.70473 46.8251 1.71302 38.3811 0.424318C35.6515 0.00781159 32.0838 -0.115562 29.4162 0.114454ZM79.2309 0.111595C75.5177 0.365439 72.957 1.17261 71.5099 2.5454C70.3652 3.6313 69.9566 4.62306 69.9668 6.2911C69.9808 8.56171 71.0302 10.0882 73.2936 11.1304C76.5699 12.6391 84.4969 12.9248 89.0651 11.6989C91.5055 11.044 93.145 9.816 93.8035 8.14965C94.1237 7.33983 94.1988 5.80014 93.9638 4.86663C93.5975 3.41124 92.6506 2.32809 91.0496 1.5332C90.5224 1.27142 89.6827 0.939842 89.1837 0.796347C86.8691 0.130868 82.9217 -0.140765 79.2309 0.111595ZM104.503 0.115619C100.777 0.383653 98.0772 1.27364 96.6746 2.6961C95.2372 4.15371 94.8697 6.57364 95.7844 8.55705C96.6825 10.5044 99.2158 11.7702 103.108 12.2167C107.829 12.7581 112.695 12.4094 115.555 11.3243L116.147 11.0996V9.93355C116.147 9.29221 116.112 8.78569 116.069 8.80804C114.161 9.79789 112.059 10.2152 108.38 10.3344C104.397 10.4634 100.934 9.97633 99.081 9.02672C98.7986 8.88206 98.32 8.51257 98.0175 8.20578C97.1176 7.29334 96.9285 6.20574 97.4582 4.98948C98.3643 2.90917 101.494 2.12296 108.367 2.24941C112.243 2.32078 113.881 2.5597 115.498 3.28967L116.154 3.58587L116.124 2.45242L116.095 1.31907L115.103 0.983156C112.706 0.171852 108.503 -0.172219 104.503 0.115619ZM139.691 0.105347C136.965 0.291731 135.022 0.733443 133.412 1.5332C131.336 2.56404 130.35 4.08064 130.35 6.24344C130.35 8.86808 131.82 10.5924 134.892 11.5695C138.08 12.5836 144.332 12.7598 148.393 11.95C152.08 11.2144 154.127 9.55231 154.472 7.01122C154.756 4.93282 153.996 3.17688 152.3 1.98646C150.133 0.46562 145.196 -0.270918 139.691 0.105347ZM176.613 6.24344V12.068H185.594H194.575V10.956V9.84406H186.638H178.702V8.5203V7.19655H186.638H194.575V6.13754V5.07854H186.638H178.702V3.86068V2.64283H186.638H194.575V1.53087V0.418918H185.594H176.613V6.24344ZM196.977 6.23455V12.068H197.969H198.961V10.1088V8.14965H203.897H208.832L210.762 10.1088L212.692 12.068H214.181C215 12.068 215.67 12.0257 215.67 11.9741C215.67 11.9226 214.754 10.9724 213.634 9.86281C212.514 8.75329 211.598 7.8185 211.598 7.78567C211.598 7.75295 211.661 7.72605 211.738 7.72605C211.814 7.72605 212.168 7.57885 212.523 7.39892C213.682 6.81171 214.208 5.80555 214.208 4.17839C214.208 2.64484 213.698 1.59335 212.681 1.03441C211.749 0.521535 211.481 0.503533 204 0.450688L196.977 0.40102V6.23455ZM118.131 1.53087V2.53693L120.507 2.53661L122.883 2.5364L123.196 1.66293C123.368 1.18257 123.524 0.730053 123.543 0.657194C123.569 0.553835 122.981 0.524818 120.854 0.524818H118.131V1.53087ZM124.912 1.41407C124.334 2.66581 124.325 2.64283 125.389 2.64283H126.277V7.30245V11.9621H127.321H128.365V6.24344V0.524818H126.844H125.323L124.912 1.41407ZM156.458 1.5277V2.53693H163.592C171.567 2.53693 171.618 2.54095 172.028 3.20442C172.474 3.92465 172.038 4.80987 171.11 5.07144C170.862 5.14123 169.161 5.18349 166.586 5.1838L162.459 5.18444L162.461 6.16402L162.462 7.1436L166.849 7.19655C171.013 7.24685 171.253 7.2603 171.6 7.46427C171.801 7.58245 172.054 7.86086 172.162 8.08357C172.42 8.61593 172.27 9.19362 171.78 9.54754L171.444 9.79111L163.951 9.8196L156.458 9.84819V10.9077V11.9673L164.316 11.9381L172.175 11.9091L172.697 11.6654C173.374 11.3492 173.832 10.8921 174.097 10.2661C174.727 8.78177 174.325 7.1059 173.18 6.43735L172.77 6.19822L173.245 5.77473C173.901 5.18921 174.209 4.48094 174.21 3.55527C174.211 3.15433 174.156 2.63923 174.088 2.41059C173.914 1.82009 173.272 1.12845 172.622 0.830766L172.07 0.577769L164.264 0.548117L156.458 0.518358V1.5277ZM87.1148 2.47455C89.2426 2.80486 90.3975 3.2435 91.258 4.04792C91.8818 4.6309 92.1478 5.18762 92.2078 6.03567C92.3484 8.0212 90.6622 9.35523 87.2602 9.95018C83.9023 10.5373 78.7554 10.4699 75.9158 9.80149C72.9891 9.11271 71.5717 7.67278 71.8791 5.70092C72.1752 3.80106 74.1876 2.71738 78.1336 2.33265C79.729 2.17718 85.8189 2.27334 87.1148 2.47455ZM147.215 2.4287C150.898 2.93681 152.601 4.1212 152.613 6.18223C152.628 8.79999 149.733 10.1232 143.53 10.3336C140.503 10.4363 137.688 10.1842 135.708 9.63342C134.091 9.18356 132.874 8.3067 132.437 7.27608C132.15 6.59874 132.185 5.57701 132.518 4.91492C132.795 4.36466 133.523 3.68584 134.221 3.32737C134.946 2.9546 136.41 2.58882 137.764 2.44162C138.367 2.37607 139.002 2.30384 139.174 2.28107C139.873 2.18851 146.334 2.30723 147.215 2.4287ZM211.019 2.75868C211.686 2.92897 212.04 3.35374 212.091 4.04368C212.17 5.10385 211.554 5.69499 210.136 5.92161C209.739 5.98494 207.273 6.03037 204.209 6.0308L198.961 6.03164V4.33724V2.64283H204.763C208.619 2.64283 210.717 2.68169 211.019 2.75868ZM156.458 6.19049V7.19655H158.703H160.948V6.19049V5.18444H158.703H156.458V6.19049ZM69.8835 18.1572V19.1633H73.9564H78.0292V23.9288V28.6943H79.0735H80.1178V23.9288V19.1633H83.5579C86.1966 19.1633 87.0171 19.1325 87.0801 19.0309C87.1519 18.9151 87.8394 17.2472 87.844 17.1777C87.845 17.1632 83.8043 17.1512 78.8646 17.1512H69.8835V18.1572ZM89.9344 22.9228V28.6943H90.9788H92.0231V26.3116V23.9288H99.5422H107.061V26.3116V28.6943H108.053H109.045V22.9228V17.1512H108.053H107.061V19.3751V21.599H99.5422H92.0231V19.3751V17.1512H90.9788H89.9344V22.9228ZM111.761 22.9228V28.6943H112.753H113.745V26.7352V24.776H118.628H123.511L125.441 26.7352L127.371 28.6943H128.913C129.785 28.6943 130.454 28.6519 130.454 28.5966C130.454 28.5429 129.538 27.6037 128.419 26.5094C127.299 25.4152 126.418 24.4902 126.46 24.4537C126.503 24.4172 126.768 24.3015 127.049 24.1963C127.771 23.9268 128.492 23.1805 128.769 22.4157C129.074 21.5765 129.081 20.0478 128.783 19.2415C128.539 18.5799 127.871 17.8408 127.268 17.5664C126.445 17.1918 125.633 17.1528 118.627 17.152L111.761 17.1512V22.9228ZM131.812 22.9228V28.6943H140.741H149.669V27.6353V26.5763H141.733H133.796V25.2526V23.9288H141.733H149.669V22.8698V21.8108H141.733H133.796V20.54V19.2692H141.733H149.669V18.2102V17.1512H140.741H131.812V22.9228ZM152.071 22.9228V28.6943H161H169.929V27.6353V26.5763H162.045H154.16V25.2526V23.9288H162.045H169.929V22.8698V21.8108H162.045H154.16V20.54V19.2692H162.045H169.929V18.2102V17.1512H161H152.071V22.9228ZM172.97 17.3809C172.303 17.7159 171.913 18.3825 171.913 19.1892C171.913 19.9097 172.073 20.2749 172.586 20.7316C174.129 22.1054 176.622 20.6355 176.098 18.6612C175.761 17.3923 174.211 16.758 172.97 17.3809ZM25.2389 17.6777C25.4112 17.7292 26.1188 17.8455 26.8113 17.9361C29.3279 18.2654 31.4754 19.021 31.8211 19.6987C31.963 19.977 31.9631 20.0438 31.8225 20.3195C30.9373 22.0553 21.8863 22.3582 17.0869 20.8127C16.3519 20.576 16.142 20.5846 16.4443 20.8389C17.0056 21.3113 18.716 21.8961 20.6961 22.2924C22.7749 22.7086 24.2468 23.5346 24.2468 24.2849C24.2468 24.7259 24.017 25.0446 23.4243 25.4258C21.6736 26.5518 16.6967 27.1864 11.84 26.9033C5.42554 26.5291 1.07355 25.2792 0.66867 23.6945L0.585228 23.3681L0.301904 23.7095C-0.780428 25.014 1.10112 26.5132 5.08353 27.5194C8.09252 28.2797 13.5075 28.7887 17.041 28.6433C22.0078 28.439 25.347 27.707 26.742 26.5166C27.9332 25.5002 27.4025 23.8437 25.6117 22.9886L25.03 22.711L26.8773 22.6907C29.8526 22.6581 32.1692 22.2689 33.537 21.5721C34.3258 21.1702 34.6313 20.8006 34.6163 20.2662C34.5908 19.3516 33.1997 18.6333 30.4461 18.1126C28.7434 17.7906 24.4045 17.4282 25.2389 17.6777ZM174.839 17.8131C175.416 18.2116 175.621 18.5789 175.621 19.2163C175.621 19.9182 175.384 20.2837 174.705 20.6293C174.062 20.9561 173.509 20.8737 172.958 20.3689C172.113 19.5941 172.267 18.3178 173.273 17.7708C173.77 17.5007 174.411 17.5179 174.839 17.8131ZM173.297 18.0685C173.204 18.1067 173.167 18.4523 173.167 19.278V20.4341H173.428C173.668 20.4341 173.689 20.3958 173.689 19.9506C173.689 19.4865 173.7 19.4683 173.973 19.5005C174.206 19.5278 174.279 19.611 174.374 19.9576C174.47 20.3078 174.54 20.3872 174.782 20.4161C175.02 20.4444 175.063 20.4176 175.008 20.2739C174.971 20.1765 174.911 19.9702 174.875 19.8153C174.839 19.6606 174.764 19.4757 174.708 19.4045C174.641 19.3174 174.663 19.2197 174.775 19.1057C174.951 18.927 174.992 18.5604 174.86 18.3492C174.687 18.0726 173.714 17.898 173.297 18.0685ZM174.315 18.5808C174.49 18.7936 174.28 19.0574 173.937 19.0574C173.731 19.0574 173.689 19.0036 173.689 18.7397C173.689 18.4758 173.731 18.422 173.937 18.422C174.074 18.422 174.244 18.4935 174.315 18.5808ZM125.656 19.3862C125.969 19.4542 126.327 19.624 126.512 19.792C126.777 20.0318 126.839 20.1798 126.879 20.6637C126.964 21.7025 126.493 22.2376 125.262 22.5021C124.699 22.6231 123.444 22.6547 119.149 22.6562L113.745 22.658V20.9636V19.2692H119.431C123.187 19.2692 125.3 19.3089 125.656 19.3862Z" fill="#1E5990"/>
</svg>
