<?xml version="1.0" encoding="utf-8"?><svg xmlns="http://www.w3.org/2000/svg" xmlns:xlink="http://www.w3.org/1999/xlink"><symbol viewBox="0 0 56 56" fill="currentColor" id="brand-agent" xmlns="http://www.w3.org/2000/svg">
<path d="M50.75 28V45.5C50.75 47.8207 49.8281 50.0462 48.1872 51.6872C46.5462 53.3281 44.3206 54.25 42 54.25H29.75C29.2859 54.25 28.8407 54.0656 28.5126 53.7374C28.1844 53.4093 28 52.9641 28 52.5C28 52.0359 28.1844 51.5908 28.5126 51.2626C28.8407 50.9344 29.2859 50.75 29.75 50.75H42C43.3924 50.75 44.7277 50.1969 45.7123 49.2123C46.6969 48.2278 47.25 46.8924 47.25 45.5H42C40.6076 45.5 39.2723 44.9469 38.2877 43.9623C37.3031 42.9778 36.75 41.6424 36.75 40.25V31.5C36.75 30.1076 37.3031 28.7723 38.2877 27.7877C39.2723 26.8031 40.6076 26.25 42 26.25H47.1734C46.8423 22.6121 45.4828 19.1434 43.2539 16.2493C41.0249 13.3551 38.0185 11.155 34.5857 9.90573C31.153 8.6565 27.4356 8.4098 23.8679 9.19444C20.3002 9.97908 17.0294 11.7627 14.4375 14.3369C11.2146 17.5173 9.22671 21.7396 8.82875 26.25H14C15.3924 26.25 16.7277 26.8031 17.7123 27.7877C18.6969 28.7723 19.25 30.1076 19.25 31.5V40.25C19.25 41.6424 18.6969 42.9778 17.7123 43.9623C16.7277 44.9469 15.3924 45.5 14 45.5H10.5C9.10761 45.5 7.77226 44.9469 6.78769 43.9623C5.80312 42.9778 5.25 41.6424 5.25 40.25V28C5.25491 23.4935 6.59668 19.0898 9.10548 15.3463C11.6143 11.6027 15.1773 8.6876 19.3436 6.96993C23.5099 5.25226 28.0921 4.80926 32.5103 5.69699C36.9285 6.58471 40.984 8.76326 44.1634 11.9569C46.2626 14.0663 47.925 16.5692 49.0552 19.3222C50.1855 22.0751 50.7614 25.0241 50.75 28Z" fill="currentColor"/>
</symbol><symbol viewBox="0 0 56 56" fill="currentColor" id="brand-alarm" xmlns="http://www.w3.org/2000/svg">
<path d="M49.0002 15.5531C48.5883 15.7664 48.1085 15.8075 47.6663 15.6672C47.2241 15.5269 46.8557 15.2168 46.6421 14.805C44.9717 11.5051 42.4434 8.71608 39.3227 6.73093C39.1282 6.60826 38.9598 6.4485 38.8271 6.26075C38.6943 6.073 38.5999 5.86094 38.5491 5.63669C38.4983 5.41244 38.4922 5.18038 38.5311 4.95376C38.57 4.72714 38.6532 4.51041 38.7758 4.31593C38.8985 4.12145 39.0583 3.95303 39.246 3.8203C39.4338 3.68756 39.6458 3.59311 39.8701 3.54233C40.0943 3.49155 40.3264 3.48543 40.553 3.52433C40.7796 3.56323 40.9963 3.64639 41.1908 3.76905C44.8278 6.09773 47.7809 9.3506 49.7483 13.195C49.9617 13.6069 50.0027 14.0867 49.8624 14.5289C49.7221 14.9711 49.412 15.3395 49.0002 15.5531ZM7.81177 15.75C8.13237 15.7499 8.44678 15.6616 8.72067 15.495C8.99457 15.3284 9.21741 15.0897 9.36489 14.805C11.0353 11.5051 13.5636 8.71608 16.6843 6.73093C17.077 6.4832 17.3553 6.08959 17.4579 5.63669C17.5604 5.18379 17.4789 4.7087 17.2311 4.31593C16.9834 3.92316 16.5898 3.64489 16.1369 3.54233C15.684 3.43977 15.2089 3.52132 14.8161 3.76905C11.1792 6.09773 8.22603 9.3506 6.25864 13.195C6.12048 13.4617 6.05328 13.7595 6.06352 14.0596C6.07376 14.3598 6.16109 14.6523 6.31711 14.909C6.47313 15.1657 6.69258 15.3779 6.95436 15.5251C7.21613 15.6724 7.5114 15.7499 7.81177 15.75ZM48.5211 38.4869C48.8312 39.0185 48.9955 39.6225 48.9977 40.238C48.9998 40.8534 48.8396 41.4585 48.5332 41.9923C48.2268 42.5261 47.7851 42.9696 47.2526 43.2782C46.7201 43.5868 46.1157 43.7495 45.5002 43.75H36.5752C36.1736 45.728 35.1004 47.5063 33.5377 48.7836C31.9749 50.061 30.0186 50.7588 28.0002 50.7588C25.9818 50.7588 24.0255 50.061 22.4628 48.7836C20.9 47.5063 19.8269 45.728 19.4252 43.75H10.5002C9.88513 43.7488 9.28123 43.5855 8.74934 43.2766C8.21746 42.9677 7.77637 42.5241 7.47052 41.9904C7.16466 41.4568 7.00483 40.852 7.00714 40.2369C7.00944 39.6218 7.17379 39.0182 7.48364 38.4869C9.45458 35.0853 10.5002 30.2487 10.5002 24.5C10.5002 19.8587 12.3439 15.4075 15.6258 12.1256C18.9077 8.84373 23.3589 6.99999 28.0002 6.99999C32.6415 6.99999 37.0927 8.84373 40.3746 12.1256C43.6565 15.4075 45.5002 19.8587 45.5002 24.5C45.5002 30.2466 46.5458 35.0831 48.5211 38.4869ZM32.9483 43.75H23.0521C23.4146 44.7724 24.085 45.6575 24.9711 46.2834C25.8572 46.9093 26.9154 47.2454 28.0002 47.2454C29.085 47.2454 30.1433 46.9093 31.0293 46.2834C31.9154 45.6575 32.5858 44.7724 32.9483 43.75Z" fill="currentColor"/>
</symbol><symbol viewBox="0 0 56 56" fill="currentColor" id="brand-calendar-check" xmlns="http://www.w3.org/2000/svg">
<g clip-path="url(#cclip0_27993_187580)">
<path d="M45.5 7H40.25V5.25C40.25 4.78587 40.0656 4.34075 39.7374 4.01256C39.4092 3.68437 38.9641 3.5 38.5 3.5C38.0359 3.5 37.5907 3.68437 37.2626 4.01256C36.9344 4.34075 36.75 4.78587 36.75 5.25V7H19.25V5.25C19.25 4.78587 19.0656 4.34075 18.7374 4.01256C18.4092 3.68437 17.9641 3.5 17.5 3.5C17.0359 3.5 16.5908 3.68437 16.2626 4.01256C15.9344 4.34075 15.75 4.78587 15.75 5.25V7H10.5C9.57174 7 8.6815 7.36875 8.02513 8.02513C7.36875 8.6815 7 9.57174 7 10.5V45.5C7 46.4283 7.36875 47.3185 8.02513 47.9749C8.6815 48.6312 9.57174 49 10.5 49H45.5C46.4283 49 47.3185 48.6312 47.9749 47.9749C48.6312 47.3185 49 46.4283 49 45.5V10.5C49 9.57174 48.6312 8.6815 47.9749 8.02513C47.3185 7.36875 46.4283 7 45.5 7ZM37.1131 29.2381L26.6131 39.7381C26.4506 39.9008 26.2576 40.0299 26.0451 40.118C25.8327 40.206 25.605 40.2514 25.375 40.2514C25.145 40.2514 24.9173 40.206 24.7049 40.118C24.4924 40.0299 24.2994 39.9008 24.1369 39.7381L18.8869 34.4881C18.5585 34.1598 18.374 33.7144 18.374 33.25C18.374 32.7856 18.5585 32.3402 18.8869 32.0119C19.2152 31.6835 19.6606 31.499 20.125 31.499C20.5894 31.499 21.0348 31.6835 21.3631 32.0119L25.375 36.0259L34.6369 26.7619C34.7995 26.5993 34.9925 26.4703 35.2049 26.3823C35.4174 26.2943 35.6451 26.249 35.875 26.249C36.1049 26.249 36.3326 26.2943 36.5451 26.3823C36.7575 26.4703 36.9505 26.5993 37.1131 26.7619C37.2757 26.9245 37.4047 27.1175 37.4927 27.3299C37.5807 27.5424 37.626 27.7701 37.626 28C37.626 28.2299 37.5807 28.4576 37.4927 28.6701C37.4047 28.8825 37.2757 29.0755 37.1131 29.2381ZM10.5 17.5V10.5H15.75V12.25C15.75 12.7141 15.9344 13.1592 16.2626 13.4874C16.5908 13.8156 17.0359 14 17.5 14C17.9641 14 18.4092 13.8156 18.7374 13.4874C19.0656 13.1592 19.25 12.7141 19.25 12.25V10.5H36.75V12.25C36.75 12.7141 36.9344 13.1592 37.2626 13.4874C37.5907 13.8156 38.0359 14 38.5 14C38.9641 14 39.4092 13.8156 39.7374 13.4874C40.0656 13.1592 40.25 12.7141 40.25 12.25V10.5H45.5V17.5H10.5Z" fill="currentColor"/>
</g>
<defs>
<clipPath id="cclip0_27993_187580">
<rect width="56" height="56" fill="currentColor"/>
</clipPath>
</defs>
</symbol><symbol viewBox="0 0 56 56" fill="currentColor" id="brand-chat-teardrop-text" xmlns="http://www.w3.org/2000/svg">
<g clip-path="url(#dclip0_27993_187577)">
<path d="M28.875 5.25C23.0753 5.25637 17.5151 7.5631 13.4141 11.6641C9.3131 15.7651 7.00637 21.3253 7 27.125V45.5C7 46.4283 7.36875 47.3185 8.02513 47.9749C8.6815 48.6312 9.57174 49 10.5 49H28.875C34.6766 49 40.2406 46.6953 44.343 42.593C48.4453 38.4906 50.75 32.9266 50.75 27.125C50.75 21.3234 48.4453 15.7594 44.343 11.657C40.2406 7.55468 34.6766 5.25 28.875 5.25ZM35.875 33.25H21C20.5359 33.25 20.0908 33.0656 19.7626 32.7374C19.4344 32.4093 19.25 31.9641 19.25 31.5C19.25 31.0359 19.4344 30.5907 19.7626 30.2626C20.0908 29.9344 20.5359 29.75 21 29.75H35.875C36.3391 29.75 36.7843 29.9344 37.1124 30.2626C37.4406 30.5907 37.625 31.0359 37.625 31.5C37.625 31.9641 37.4406 32.4093 37.1124 32.7374C36.7843 33.0656 36.3391 33.25 35.875 33.25ZM35.875 26.25H21C20.5359 26.25 20.0908 26.0656 19.7626 25.7374C19.4344 25.4092 19.25 24.9641 19.25 24.5C19.25 24.0359 19.4344 23.5908 19.7626 23.2626C20.0908 22.9344 20.5359 22.75 21 22.75H35.875C36.3391 22.75 36.7843 22.9344 37.1124 23.2626C37.4406 23.5908 37.625 24.0359 37.625 24.5C37.625 24.9641 37.4406 25.4092 37.1124 25.7374C36.7843 26.0656 36.3391 26.25 35.875 26.25Z" fill="currentColor"/>
</g>
<defs>
<clipPath id="dclip0_27993_187577">
<rect width="56" height="56" fill="currentColor"/>
</clipPath>
</defs>
</symbol><symbol viewBox="0 0 56 56" fill="currentColor" id="brand-clock" xmlns="http://www.w3.org/2000/svg">
<path d="M28 5.25C23.5005 5.25 19.102 6.58426 15.3608 9.08407C11.6196 11.5839 8.70364 15.1369 6.98175 19.294C5.25986 23.451 4.80933 28.0252 5.68715 32.4383C6.56496 36.8514 8.73169 40.905 11.9133 44.0867C15.095 47.2683 19.1486 49.435 23.5617 50.3129C27.9748 51.1907 32.549 50.7402 36.7061 49.0183C40.8631 47.2964 44.4161 44.3804 46.9159 40.6392C49.4157 36.898 50.75 32.4995 50.75 28C50.7436 21.9683 48.3447 16.1854 44.0797 11.9204C39.8146 7.65528 34.0317 5.25637 28 5.25ZM40.25 29.75H28C27.5359 29.75 27.0908 29.5656 26.7626 29.2374C26.4344 28.9092 26.25 28.4641 26.25 28V15.75C26.25 15.2859 26.4344 14.8408 26.7626 14.5126C27.0908 14.1844 27.5359 14 28 14C28.4641 14 28.9093 14.1844 29.2374 14.5126C29.5656 14.8408 29.75 15.2859 29.75 15.75V26.25H40.25C40.7141 26.25 41.1593 26.4344 41.4874 26.7626C41.8156 27.0907 42 27.5359 42 28C42 28.4641 41.8156 28.9092 41.4874 29.2374C41.1593 29.5656 40.7141 29.75 40.25 29.75Z" fill="currentColor"/>
</symbol><symbol viewBox="0 0 56 56" fill="currentColor" id="brand-coins" xmlns="http://www.w3.org/2000/svg">
<path d="M40.25 19.5934V18.375C40.25 12.8888 31.9747 8.75 21 8.75C10.0253 8.75 1.75 12.8888 1.75 18.375V27.125C1.75 31.6947 7.49219 35.3259 15.75 36.4131V37.625C15.75 43.1113 24.0253 47.25 35 47.25C45.9747 47.25 54.25 43.1113 54.25 37.625V28.875C54.25 24.3469 48.6894 20.7113 40.25 19.5934ZM12.25 32.1278C7.96469 30.9312 5.25 28.9603 5.25 27.125V24.0472C7.035 25.3116 9.42594 26.3309 12.25 27.0156V32.1278ZM29.75 27.0156C32.5741 26.3309 34.965 25.3116 36.75 24.0472V27.125C36.75 28.9603 34.0353 30.9312 29.75 32.1278V27.0156ZM26.25 42.6278C21.9647 41.4312 19.25 39.4603 19.25 37.625V36.7128C19.8253 36.7347 20.4072 36.75 21 36.75C21.8487 36.75 22.6778 36.7216 23.4916 36.6734C24.3956 36.9971 25.3164 37.2716 26.25 37.4959V42.6278ZM26.25 32.8672C24.5118 33.124 22.757 33.2519 21 33.25C19.243 33.2519 17.4882 33.124 15.75 32.8672V27.6631C17.4908 27.8899 19.2445 28.0025 21 28C22.7555 28.0025 24.5092 27.8899 26.25 27.6631V32.8672ZM40.25 43.3672C36.7686 43.8776 33.2314 43.8776 29.75 43.3672V38.15C31.4902 38.3839 33.2441 38.5009 35 38.5C36.7555 38.5025 38.5092 38.3899 40.25 38.1631V43.3672ZM50.75 37.625C50.75 39.4603 48.0353 41.4312 43.75 42.6278V37.5156C46.5741 36.8309 48.965 35.8116 50.75 34.5472V37.625Z" fill="currentColor"/>
</symbol><symbol viewBox="0 0 56 56" fill="currentColor" id="brand-dollar-bill" xmlns="http://www.w3.org/2000/svg">
<path d="M53.4275 13.125C53.1756 12.9678 52.8877 12.8772 52.5912 12.8619C52.2946 12.8466 51.999 12.907 51.7322 13.0375C42.3413 17.6312 35.6344 15.4787 28.5447 13.2081C21.0875 10.8347 13.3875 8.37374 2.73219 13.5756C2.43792 13.7193 2.18986 13.9427 2.01623 14.2203C1.8426 14.498 1.75036 14.8188 1.75 15.1462V41.3809C1.74996 41.6778 1.82547 41.9699 1.96942 42.2296C2.11337 42.4893 2.32102 42.7081 2.57285 42.8654C2.82467 43.0227 3.11238 43.1133 3.4089 43.1288C3.70542 43.1443 4.001 43.084 4.26781 42.9537C13.6588 38.36 20.3656 40.5125 27.4662 42.7831C31.675 44.1284 35.9625 45.5 40.81 45.5C44.5484 45.5 48.6259 44.6862 53.2591 42.4244C53.5533 42.2807 53.8014 42.0573 53.975 41.7797C54.1486 41.502 54.2409 41.1812 54.2413 40.8537V14.6191C54.2439 14.3214 54.1705 14.0279 54.0282 13.7665C53.8858 13.505 53.679 13.2843 53.4275 13.125ZM10.5 33.25C10.5 33.7141 10.3156 34.1592 9.98744 34.4874C9.65925 34.8156 9.21413 35 8.75 35C8.28587 35 7.84075 34.8156 7.51256 34.4874C7.18437 34.1592 7 33.7141 7 33.25V19.25C7 18.7859 7.18437 18.3407 7.51256 18.0126C7.84075 17.6844 8.28587 17.5 8.75 17.5C9.21413 17.5 9.65925 17.6844 9.98744 18.0126C10.3156 18.3407 10.5 18.7859 10.5 19.25V33.25ZM28 35C26.6155 35 25.2622 34.5894 24.111 33.8203C22.9599 33.0511 22.0627 31.9579 21.5328 30.6788C21.003 29.3997 20.8644 27.9922 21.1345 26.6344C21.4046 25.2765 22.0713 24.0292 23.0503 23.0502C24.0292 22.0713 25.2765 21.4046 26.6344 21.1345C27.9922 20.8644 29.3997 21.003 30.6788 21.5328C31.9579 22.0626 33.0511 22.9599 33.8203 24.111C34.5895 25.2621 35 26.6155 35 28C35 29.8565 34.2625 31.637 32.9497 32.9497C31.637 34.2625 29.8565 35 28 35ZM49 36.75C49 37.2141 48.8156 37.6592 48.4874 37.9874C48.1592 38.3156 47.7141 38.5 47.25 38.5C46.7859 38.5 46.3408 38.3156 46.0126 37.9874C45.6844 37.6592 45.5 37.2141 45.5 36.75V22.75C45.5 22.2859 45.6844 21.8407 46.0126 21.5126C46.3408 21.1844 46.7859 21 47.25 21C47.7141 21 48.1592 21.1844 48.4874 21.5126C48.8156 21.8407 49 22.2859 49 22.75V36.75Z" fill="currentColor"/>
</symbol><symbol viewBox="0 0 56 56" fill="currentColor" id="brand-envelope-simple" xmlns="http://www.w3.org/2000/svg">
<g clip-path="url(#hclip0_27993_187563)">
<path d="M49 10.5H7C6.53587 10.5 6.09075 10.6844 5.76256 11.0126C5.43437 11.3408 5.25 11.7859 5.25 12.25V42C5.25 42.9283 5.61875 43.8185 6.27513 44.4749C6.9315 45.1312 7.82174 45.5 8.75 45.5H47.25C48.1783 45.5 49.0685 45.1312 49.7249 44.4749C50.3812 43.8185 50.75 42.9283 50.75 42V12.25C50.75 11.7859 50.5656 11.3408 50.2374 11.0126C49.9092 10.6844 49.4641 10.5 49 10.5ZM47.25 42H8.75V16.2291L26.8166 32.7906C27.1394 33.087 27.5617 33.2514 28 33.2514C28.4383 33.2514 28.8606 33.087 29.1834 32.7906L47.25 16.2291V42Z" fill="currentColor"/>
</g>
<defs>
<clipPath id="hclip0_27993_187563">
<rect width="56" height="56" fill="currentColor"/>
</clipPath>
</defs>
</symbol><symbol viewBox="0 0 56 56" fill="currentColor" id="brand-globe" xmlns="http://www.w3.org/2000/svg">
<path d="M28 5.25C23.5005 5.25 19.102 6.58426 15.3608 9.08407C11.6196 11.5839 8.70364 15.1369 6.98175 19.294C5.25986 23.451 4.80933 28.0252 5.68715 32.4383C6.56496 36.8514 8.73169 40.905 11.9133 44.0867C15.095 47.2683 19.1486 49.435 23.5617 50.3129C27.9748 51.1907 32.549 50.7402 36.7061 49.0183C40.8631 47.2964 44.4161 44.3804 46.9159 40.6392C49.4157 36.898 50.75 32.4995 50.75 28C50.7436 21.9683 48.3447 16.1854 44.0797 11.9204C39.8146 7.65528 34.0317 5.25637 28 5.25ZM47.25 28C47.2519 30.4696 46.7765 32.9164 45.85 35.2056L36.0719 29.1922C35.6561 28.9356 35.1911 28.7694 34.7069 28.7044L29.715 28.0306C29.0272 27.9409 28.3281 28.0562 27.7055 28.3621C27.0829 28.6679 26.5644 29.1507 26.215 29.75H24.3075L23.4763 28.0306C23.2465 27.5519 22.9101 27.132 22.4931 26.8033C22.076 26.4746 21.5892 26.2457 21.07 26.1341L19.32 25.7556L21.0306 22.75H24.6859C25.2774 22.7488 25.8591 22.5984 26.3769 22.3125L29.0566 20.8337C29.292 20.7025 29.5121 20.5455 29.7128 20.3656L35.5994 15.0413C36.1896 14.5123 36.5818 13.7981 36.7115 13.0162C36.8411 12.2344 36.7004 11.4317 36.3125 10.7406L36.2338 10.5984C39.5277 12.1603 42.3111 14.6243 44.2611 17.7044C46.211 20.7846 47.2474 24.3545 47.25 28ZM8.75001 28C8.74709 25.1388 9.38544 22.3133 10.6181 19.7312L13.0988 26.3528C13.3055 26.9011 13.6465 27.3886 14.0906 27.7708C14.5348 28.153 15.0677 28.4176 15.6406 28.5403L20.3284 29.5487L21.1619 31.2812C21.4511 31.8705 21.8994 32.3671 22.456 32.715C23.0126 33.0629 23.6555 33.2482 24.3119 33.25H24.6356L23.0541 36.8003C22.7754 37.4255 22.6862 38.1186 22.7973 38.7939C22.9085 39.4693 23.2153 40.0972 23.6797 40.6L23.7103 40.6306L28 45.0494L27.5756 47.2369C22.5484 47.1199 17.7659 45.0428 14.2488 41.4488C10.7316 37.8548 8.75835 33.0286 8.75001 28Z" fill="currentColor"/>
</symbol><symbol viewBox="0 0 56 56" fill="currentColor" id="brand-hammer" xmlns="http://www.w3.org/2000/svg">
<g clip-path="url(#jclip0_27993_187617)">
<path d="M54.9808 24.5L40.2239 9.6425C36.2828 5.70922 30.9422 3.50018 25.3741 3.50018C19.806 3.50018 14.4654 5.70922 10.5243 9.6425L10.5046 9.66218L7.49238 12.775C7.18035 13.1103 7.01223 13.5546 7.02411 14.0125C7.03599 14.4704 7.22693 14.9054 7.55593 15.2241C7.88494 15.5428 8.32578 15.7198 8.78382 15.7171C9.24186 15.7144 9.68059 15.5322 10.0058 15.2097L13.0093 12.1078C14.2176 10.8997 15.5965 9.87527 17.1021 9.06718L27.2739 19.25L6.27394 40.25C5.94885 40.575 5.69097 40.9609 5.51503 41.3856C5.33909 41.8103 5.24854 42.2655 5.24854 42.7252C5.24854 43.1848 5.33909 43.64 5.51503 44.0647C5.69097 44.4894 5.94885 44.8753 6.27394 45.2003L10.7999 49.7262C11.1249 50.0513 11.5108 50.3092 11.9355 50.4852C12.3602 50.6611 12.8153 50.7517 13.275 50.7517C13.7347 50.7517 14.1899 50.6611 14.6146 50.4852C15.0393 50.3092 15.4252 50.0513 15.7502 49.7262L36.7502 28.7262L43.7502 35.7262C44.0752 36.0513 44.4611 36.3092 44.8858 36.4852C45.3105 36.6611 45.7657 36.7517 46.2253 36.7517C46.685 36.7517 47.1402 36.6611 47.5649 36.4852C47.9896 36.3092 48.3755 36.0513 48.7005 35.7262L54.9764 29.4503C55.3018 29.1256 55.56 28.7399 55.7364 28.3154C55.9127 27.8909 56.0036 27.4358 56.004 26.9761C56.0044 26.5164 55.9143 26.0611 55.7387 25.6362C55.5632 25.2114 55.3056 24.8253 54.9808 24.5ZM35.5121 25.0097L30.6252 29.8966L26.0993 25.375L30.9883 20.4859C31.151 20.3234 31.2801 20.1304 31.3682 19.918C31.4562 19.7055 31.5016 19.4778 31.5016 19.2478C31.5016 19.0178 31.4562 18.7901 31.3682 18.5777C31.2801 18.3652 31.151 18.1722 30.9883 18.0097L20.6327 7.65625C23.6246 6.81361 26.787 6.78307 29.7946 7.56775C32.8022 8.35244 35.5466 9.92403 37.7455 12.1209L47.4186 21.8575L41.1252 28.1444L37.9883 25.0075C37.8258 24.8448 37.6328 24.7157 37.4203 24.6276C37.2079 24.5396 36.9802 24.4942 36.7502 24.4942C36.5202 24.4942 36.2925 24.5396 36.08 24.6276C35.8676 24.7157 35.6746 24.8448 35.5121 25.0075V25.0097ZM46.2308 33.2478L43.6058 30.6228L49.8752 24.3359L52.5002 26.9609L46.2308 33.2478Z" fill="currentColor"/>
</g>
<defs>
<clipPath id="jclip0_27993_187617">
<rect width="56" height="56" fill="currentColor"/>
</clipPath>
</defs>
</symbol><symbol viewBox="0 0 56 56" fill="currentColor" id="brand-horizontal-graph" xmlns="http://www.w3.org/2000/svg">
<path d="M50.75 24.5V31.5C50.75 31.9641 50.5656 32.4093 50.2374 32.7374C49.9092 33.0656 49.4641 33.25 49 33.25H12.25V36.75H31.5C31.9641 36.75 32.4093 36.9344 32.7374 37.2626C33.0656 37.5907 33.25 38.0359 33.25 38.5V43.75C33.25 44.2141 33.0656 44.6592 32.7374 44.9874C32.4093 45.3156 31.9641 45.5 31.5 45.5H12.25V47.25C12.25 47.7141 12.0656 48.1592 11.7374 48.4874C11.4092 48.8156 10.9641 49 10.5 49C10.0359 49 9.59075 48.8156 9.26256 48.4874C8.93437 48.1592 8.75 47.7141 8.75 47.25V8.75C8.75 8.28587 8.93437 7.84075 9.26256 7.51256C9.59075 7.18437 10.0359 7 10.5 7C10.9641 7 11.4092 7.18437 11.7374 7.51256C12.0656 7.84075 12.25 8.28587 12.25 8.75V10.5H38.5C38.9641 10.5 39.4093 10.6844 39.7374 11.0126C40.0656 11.3408 40.25 11.7859 40.25 12.25V17.5C40.25 17.9641 40.0656 18.4092 39.7374 18.7374C39.4093 19.0656 38.9641 19.25 38.5 19.25H12.25V22.75H49C49.4641 22.75 49.9092 22.9344 50.2374 23.2626C50.5656 23.5908 50.75 24.0359 50.75 24.5Z" fill="currentColor"/>
</symbol><symbol viewBox="0 0 56 56" fill="currentColor" id="brand-laptop" xmlns="http://www.w3.org/2000/svg">
<path d="M52.5 42H50.75V12.25C50.75 11.3217 50.3812 10.4315 49.7249 9.77513C49.0685 9.11875 48.1783 8.75 47.25 8.75H8.75C7.82174 8.75 6.9315 9.11875 6.27513 9.77513C5.61875 10.4315 5.25 11.3217 5.25 12.25V42H3.5C3.03587 42 2.59075 42.1844 2.26256 42.5126C1.93437 42.8408 1.75 43.2859 1.75 43.75C1.75 44.2141 1.93437 44.6592 2.26256 44.9874C2.59075 45.3156 3.03587 45.5 3.5 45.5H52.5C52.9641 45.5 53.4092 45.3156 53.7374 44.9874C54.0656 44.6592 54.25 44.2141 54.25 43.75C54.25 43.2859 54.0656 42.8408 53.7374 42.5126C53.4092 42.1844 52.9641 42 52.5 42ZM47.25 42H31.5V38.5C31.5 38.0359 31.6844 37.5907 32.0126 37.2626C32.3407 36.9344 32.7859 36.75 33.25 36.75H45.5C45.9641 36.75 46.4092 36.9344 46.7374 37.2626C47.0656 37.5907 47.25 38.0359 47.25 38.5V42ZM47.25 31.5C47.25 31.9641 47.0656 32.4093 46.7374 32.7374C46.4092 33.0656 45.9641 33.25 45.5 33.25C45.0359 33.25 44.5908 33.0656 44.2626 32.7374C43.9344 32.4093 43.75 31.9641 43.75 31.5V15.75H12.25V40.25C12.25 40.7141 12.0656 41.1592 11.7374 41.4874C11.4092 41.8156 10.9641 42 10.5 42C10.0359 42 9.59075 41.8156 9.26256 41.4874C8.93437 41.1592 8.75 40.7141 8.75 40.25V14C8.75 13.5359 8.93437 13.0908 9.26256 12.7626C9.59075 12.4344 10.0359 12.25 10.5 12.25H45.5C45.9641 12.25 46.4092 12.4344 46.7374 12.7626C47.0656 13.0908 47.25 13.5359 47.25 14V31.5Z" fill="currentColor"/>
</symbol><symbol viewBox="0 0 56 56" fill="currentColor" id="brand-phone-call" xmlns="http://www.w3.org/2000/svg">
<g clip-path="url(#mclip0_27993_187569)">
<path d="M47.3092 27.4503L36.757 31.472L36.7276 31.4828C36.1875 31.6993 35.7099 32.0471 35.338 32.4946C34.9661 32.9421 34.7116 33.4753 34.5976 34.0459C34.5839 34.1128 34.5741 34.1805 34.5682 34.2485L34.0129 41.223C30.4692 42.4496 25.5628 42.4682 22.05 41.2725L21.4421 34.2361C21.4344 34.1665 21.4251 34.0985 21.4112 34.0289C21.2932 33.4641 21.0374 32.9372 20.6667 32.4952C20.2959 32.0531 19.8215 31.7096 19.2859 31.4952L19.2673 31.4766L8.69343 27.4519C7.99119 27.1743 7.218 27.1312 6.48928 27.3291C5.76057 27.5271 5.1154 27.9554 4.6501 28.5501C2.82995 30.9219 1.9354 33.8751 2.13351 36.8582C2.33163 39.8413 3.60886 42.6503 5.72667 44.7605C18.0082 57.0421 37.9928 57.0421 50.2744 44.7605C52.3922 42.6503 53.6694 39.8413 53.8676 36.8582C54.0657 33.8751 53.1711 30.9219 51.351 28.5501C50.886 27.9554 50.2412 27.527 49.5128 27.3288C48.7844 27.1306 48.0114 27.1733 47.3092 27.4503Z" fill="currentColor"/>
<path d="M45.2675 11.9895C40.3987 7.99639 34.2965 5.81409 27.9997 5.81409C21.7029 5.81409 15.6007 7.99639 10.7319 11.9895" stroke="#FF6B4A" stroke-width="3.5" stroke-linecap="round" stroke-linejoin="round"/>
<path d="M39.9542 17.9352C36.5516 15.2417 32.3392 13.7761 27.9995 13.7761C23.6599 13.7761 19.4474 15.2417 16.0449 17.9352" stroke="#FF6B4A" stroke-width="3.5" stroke-linecap="round" stroke-linejoin="round"/>
<path d="M34.6413 23.9125C32.7114 22.5087 30.3863 21.7526 27.9999 21.7526C25.6134 21.7526 23.2883 22.5087 21.3584 23.9125" stroke="#FF6B4A" stroke-width="3.5" stroke-linecap="round" stroke-linejoin="round"/>
<circle cx="28.1149" cy="30.0209" r="1.89911" fill="currentColor"/>
</g>
<defs>
<clipPath id="mclip0_27993_187569">
<rect width="56" height="56" fill="currentColor"/>
</clipPath>
</defs>
</symbol><symbol viewBox="0 0 56 56" fill="currentColor" id="brand-phone-outgoing" xmlns="http://www.w3.org/2000/svg">
<g clip-path="url(#nclip0_27993_187560)">
<path d="M32.0119 23.9881C31.8492 23.8256 31.7201 23.6326 31.632 23.4201C31.544 23.2077 31.4986 22.98 31.4986 22.75C31.4986 22.52 31.544 22.2923 31.632 22.0798C31.7201 21.8674 31.8492 21.6744 32.0119 21.5119L39.526 14H35C34.5359 14 34.0908 13.8156 33.7626 13.4874C33.4344 13.1592 33.25 12.7141 33.25 12.25C33.25 11.7859 33.4344 11.3407 33.7626 11.0125C34.0908 10.6844 34.5359 10.5 35 10.5H43.75C44.2141 10.5 44.6593 10.6844 44.9875 11.0125C45.3156 11.3407 45.5 11.7859 45.5 12.25V21C45.5 21.4641 45.3156 21.9092 44.9875 22.2374C44.6593 22.5656 44.2141 22.75 43.75 22.75C43.2859 22.75 42.8408 22.5656 42.5126 22.2374C42.1844 21.9092 42 21.4641 42 21V16.474L34.4881 23.9881C34.3256 24.1508 34.1326 24.2799 33.9202 24.368C33.7077 24.456 33.48 24.5014 33.25 24.5014C33.02 24.5014 32.7923 24.456 32.5799 24.368C32.3674 24.2799 32.1744 24.1508 32.0119 23.9881ZM46.8869 36.4131L36.5816 31.7953L36.5531 31.7822C36.0182 31.5534 35.4345 31.4615 34.8551 31.515C34.2757 31.5685 33.7188 31.7656 33.2347 32.0884C33.1777 32.1261 33.1229 32.167 33.0706 32.2109L27.7528 36.75C24.3797 35.1115 20.8972 31.6553 19.2588 28.3259L23.8044 22.9206C23.8481 22.8659 23.8897 22.8112 23.9291 22.7522C24.245 22.2694 24.4367 21.716 24.4871 21.1412C24.5375 20.5665 24.445 19.9882 24.2178 19.4578V19.4315L19.5869 9.10873C19.2866 8.41588 18.7704 7.83871 18.1151 7.46338C17.4599 7.08806 16.7008 6.93471 15.9513 7.02623C12.9871 7.41628 10.2663 8.87198 8.29706 11.1214C6.32777 13.3709 5.24466 16.2603 5.25002 19.25C5.25002 36.6187 19.3813 50.75 36.75 50.75C39.7397 50.7553 42.6291 49.6722 44.8786 47.7029C47.128 45.7337 48.5837 43.0129 48.9738 40.0487C49.0655 39.2994 48.9124 38.5406 48.5375 37.8854C48.1626 37.2302 47.5859 36.7137 46.8935 36.4131H46.8869Z" fill="currentColor"/>
</g>
<defs>
<clipPath id="nclip0_27993_187560">
<rect width="56" height="56" fill="currentColor"/>
</clipPath>
</defs>
</symbol><symbol viewBox="0 0 56 56" fill="currentColor" id="brand-pie-chart" xmlns="http://www.w3.org/2000/svg">
<path d="M26.25 35.4244V49.7175C26.2508 49.8414 26.2253 49.964 26.1752 50.0773C26.1251 50.1906 26.0515 50.292 25.9592 50.3747C25.867 50.4574 25.7583 50.5196 25.6402 50.5571C25.5221 50.5947 25.3975 50.6067 25.2744 50.5925C21.2307 50.0959 17.3938 48.5253 14.1624 46.0441C10.931 43.5629 8.42316 40.2615 6.89938 36.4831C6.85384 36.3682 6.83313 36.245 6.83864 36.1216C6.84414 35.9982 6.87573 35.8773 6.93132 35.7669C6.98691 35.6566 7.06524 35.5592 7.16116 35.4813C7.25708 35.4035 7.36841 35.3468 7.48782 35.315L21.2888 31.6094C21.4654 31.563 21.6522 31.5731 21.8228 31.6382C21.9935 31.7033 22.1395 31.8202 22.2403 31.9725C23.0759 33.1813 24.2682 34.099 25.6506 34.5975C25.8245 34.6552 25.9759 34.7661 26.0835 34.9144C26.191 35.0628 26.2493 35.2411 26.25 35.4244ZM28.0131 5.24999C27.7822 5.24826 27.5532 5.29224 27.3394 5.37941C27.1256 5.46658 26.9311 5.59521 26.7672 5.75789C26.6033 5.92056 26.4732 6.11407 26.3845 6.32725C26.2957 6.54043 26.25 6.76907 26.25 6.99999V19.25C26.2465 19.7103 26.4259 20.1531 26.7487 20.4812C27.0715 20.8094 27.5113 20.9959 27.9716 21C29.6243 20.9929 31.2263 21.5708 32.4938 22.6314C33.7614 23.692 34.6128 25.1669 34.8973 26.795C35.1818 28.4231 34.881 30.0993 34.0483 31.527C33.2155 32.9546 31.9044 34.0415 30.3472 34.5953C30.1733 34.6535 30.0222 34.7649 29.915 34.9136C29.8079 35.0624 29.7501 35.241 29.75 35.4244V49.7175C29.7492 49.8412 29.7747 49.9636 29.8247 50.0767C29.8747 50.1899 29.9481 50.2911 30.0401 50.3738C30.132 50.4565 30.2405 50.5187 30.3583 50.5564C30.4761 50.5941 30.6005 50.6064 30.7234 50.5925C36.4886 49.9106 41.7749 47.0506 45.5 42.5981C49.2252 38.1456 51.1072 32.4375 50.7608 26.6425C50.4144 20.8476 47.8658 15.4043 43.6368 11.4272C39.4078 7.45014 33.8184 5.24023 28.0131 5.24999ZM21.0131 27.4509C21.0946 26.4172 21.4046 25.4145 21.9209 24.5153V24.5C22.0943 24.2005 22.1751 23.8563 22.1529 23.5109C22.1307 23.1656 22.0066 22.8345 21.7963 22.5597C21.6491 22.3706 21.4663 22.2123 21.2581 22.0937L10.6859 15.9819C10.4868 15.867 10.2669 15.7925 10.0389 15.7627C9.81089 15.7328 9.57925 15.7482 9.3572 15.808C9.13516 15.8677 8.92706 15.9706 8.7448 16.1108C8.56254 16.251 8.4097 16.4257 8.29501 16.625C5.749 21.0345 4.75395 26.1699 5.46876 31.2112C5.48562 31.3343 5.52849 31.4523 5.59451 31.5575C5.66052 31.6627 5.74817 31.7526 5.85164 31.8213C5.9551 31.89 6.072 31.9359 6.19457 31.956C6.31714 31.976 6.44256 31.9697 6.56251 31.9375L20.3919 28.2187C20.5633 28.1714 20.7158 28.0722 20.8286 27.9347C20.9414 27.7972 21.0089 27.6283 21.0219 27.4509H21.0131Z" fill="currentColor"/>
</symbol><symbol viewBox="0 0 56 56" fill="currentColor" id="brand-piggy-bank" xmlns="http://www.w3.org/2000/svg">
<path d="M49.4375 19.2675C49.35 19.0488 49.2581 18.83 49.1641 18.6113C47.7527 15.3563 45.4686 12.5552 42.5644 10.5175H47.25C47.7141 10.5175 48.1592 10.3331 48.4874 10.005C48.8156 9.67677 49 9.23165 49 8.76752C49 8.30339 48.8156 7.85827 48.4874 7.53008C48.1592 7.20189 47.7141 7.01752 47.25 7.01752H24.5C19.6615 7.02366 15.0022 8.84923 11.4474 12.1317C7.89255 15.4142 5.7022 19.9135 5.31125 24.7363C3.7996 25.112 2.45647 25.9813 1.49447 27.2063C0.532474 28.4314 0.00656582 29.9424 0 31.5C0 31.9641 0.184374 32.4093 0.512563 32.7375C0.840752 33.0656 1.28587 33.25 1.75 33.25C2.21413 33.25 2.65925 33.0656 2.98744 32.7375C3.31563 32.4093 3.5 31.9641 3.5 31.5C3.50041 30.8619 3.67528 30.236 4.0057 29.69C4.33612 29.1441 4.80952 28.6989 5.37469 28.4025C5.81028 32.3288 7.44744 36.0248 10.0625 38.9856L12.81 46.6769C13.0529 47.3572 13.5003 47.9457 14.0909 48.3616C14.6815 48.7775 15.3864 49.0005 16.1087 49H18.8913C19.6132 49.0001 20.3176 48.7769 20.9078 48.361C21.4979 47.9451 21.945 47.3568 22.1878 46.6769L22.6078 45.5H35.1422L35.5622 46.6769C35.805 47.3568 36.2521 47.9451 36.8422 48.361C37.4324 48.7769 38.1368 49.0001 38.8587 49H41.6413C42.3632 49.0001 43.0676 48.7769 43.6578 48.361C44.2479 47.9451 44.695 47.3568 44.9378 46.6769L48.4837 36.75H49C50.3924 36.75 51.7277 36.1969 52.7123 35.2123C53.6969 34.2278 54.25 32.8924 54.25 31.5V24.5C54.2502 23.1832 53.7556 21.9145 52.8642 20.9453C51.9728 19.9761 50.7497 19.3772 49.4375 19.2675ZM33.25 15.75H24.5C24.0359 15.75 23.5908 15.5656 23.2626 15.2375C22.9344 14.9093 22.75 14.4641 22.75 14C22.75 13.5359 22.9344 13.0908 23.2626 12.7626C23.5908 12.4344 24.0359 12.25 24.5 12.25H33.25C33.7141 12.25 34.1592 12.4344 34.4874 12.7626C34.8156 13.0908 35 13.5359 35 14C35 14.4641 34.8156 14.9093 34.4874 15.2375C34.1592 15.5656 33.7141 15.75 33.25 15.75ZM39.375 28C38.8558 28 38.3483 27.8461 37.9166 27.5576C37.485 27.2692 37.1485 26.8592 36.9498 26.3796C36.7511 25.8999 36.6992 25.3721 36.8004 24.8629C36.9017 24.3537 37.1517 23.886 37.5188 23.5189C37.886 23.1517 38.3537 22.9017 38.8629 22.8005C39.3721 22.6992 39.8999 22.7512 40.3795 22.9498C40.8592 23.1485 41.2692 23.485 41.5576 23.9166C41.846 24.3483 42 24.8558 42 25.375C42 26.0712 41.7234 26.7389 41.2312 27.2312C40.7389 27.7235 40.0712 28 39.375 28Z" fill="currentColor"/>
</symbol><symbol viewBox="0 0 56 56" fill="currentColor" id="brand-postive-chart" xmlns="http://www.w3.org/2000/svg">
<path d="M47.25 8.75H8.75C7.82174 8.75 6.9315 9.11875 6.27513 9.77513C5.61875 10.4315 5.25 11.3217 5.25 12.25V43.75C5.25 44.6783 5.61875 45.5685 6.27513 46.2249C6.9315 46.8812 7.82174 47.25 8.75 47.25H47.25C48.1783 47.25 49.0685 46.8812 49.7249 46.2249C50.3812 45.5685 50.75 44.6783 50.75 43.75V12.25C50.75 11.3217 50.3812 10.4315 49.7249 9.77513C49.0685 9.11875 48.1783 8.75 47.25 8.75ZM43.75 42H12.25C11.7859 42 11.3408 41.8156 11.0126 41.4874C10.6844 41.1592 10.5 40.7141 10.5 40.25V15.75C10.5 15.2859 10.6844 14.8408 11.0126 14.5126C11.3408 14.1844 11.7859 14 12.25 14C12.7141 14 13.1592 14.1844 13.4874 14.5126C13.8156 14.8408 14 15.2859 14 15.75V32.5259L21.5119 25.0119C21.6744 24.8492 21.8674 24.7201 22.0799 24.632C22.2923 24.544 22.52 24.4986 22.75 24.4986C22.98 24.4986 23.2077 24.544 23.4201 24.632C23.6326 24.7201 23.8256 24.8492 23.9881 25.0119L28 29.0259L37.7759 19.25H31.5C31.0359 19.25 30.5907 19.0656 30.2626 18.7374C29.9344 18.4092 29.75 17.9641 29.75 17.5C29.75 17.0359 29.9344 16.5908 30.2626 16.2626C30.5907 15.9344 31.0359 15.75 31.5 15.75H42C42.4641 15.75 42.9092 15.9344 43.2374 16.2626C43.5656 16.5908 43.75 17.0359 43.75 17.5V28C43.75 28.4641 43.5656 28.9093 43.2374 29.2374C42.9092 29.5656 42.4641 29.75 42 29.75C41.5359 29.75 41.0908 29.5656 40.7626 29.2374C40.4344 28.9093 40.25 28.4641 40.25 28V21.7241L29.2381 32.7381C29.0756 32.9008 28.8826 33.0299 28.6701 33.118C28.4577 33.206 28.23 33.2514 28 33.2514C27.77 33.2514 27.5423 33.206 27.3299 33.118C27.1174 33.0299 26.9244 32.9008 26.7619 32.7381L22.75 28.7241L14 37.4741V38.5H43.75C44.2141 38.5 44.6592 38.6844 44.9874 39.0126C45.3156 39.3407 45.5 39.7859 45.5 40.25C45.5 40.7141 45.3156 41.1592 44.9874 41.4874C44.6592 41.8156 44.2141 42 43.75 42Z" fill="currentColor"/>
</symbol><symbol viewBox="0 0 56 56" fill="currentColor" id="brand-rocket" xmlns="http://www.w3.org/2000/svg">
<path d="M22.2795 41.8119C21.2929 43.9687 18.0007 49 8.7498 49C8.28567 49 7.84055 48.8156 7.51236 48.4874C7.18417 48.1592 6.9998 47.7141 6.9998 47.25C6.9998 37.999 12.031 34.7069 14.1879 33.7203C14.3971 33.6249 14.6229 33.5717 14.8526 33.5636C15.0823 33.5555 15.3114 33.5927 15.5267 33.6732C15.742 33.7536 15.9394 33.8757 16.1075 34.0324C16.2757 34.1891 16.4113 34.3774 16.5067 34.5865C16.602 34.7957 16.6553 35.0215 16.6634 35.2512C16.6715 35.481 16.6342 35.71 16.5538 35.9253C16.4733 36.1406 16.3513 36.338 16.1946 36.5061C16.0378 36.6743 15.8496 36.8099 15.6404 36.9053C14.2339 37.5462 11.1298 39.609 10.5829 45.4169C16.3907 44.87 18.4579 41.7659 19.0945 40.3594C19.1899 40.1502 19.3255 39.9619 19.4936 39.8052C19.6618 39.6485 19.8591 39.5264 20.0745 39.446C20.2898 39.3656 20.5188 39.3283 20.7485 39.3364C20.9782 39.3445 21.2041 39.3977 21.4132 39.4931C21.6224 39.5885 21.8107 39.7241 21.9674 39.8923C22.1241 40.0604 22.2461 40.2578 22.3266 40.4731C22.407 40.6884 22.4443 40.9174 22.4362 41.1471C22.4281 41.3769 22.3749 41.6027 22.2795 41.8119ZM48.967 10.3119C48.9151 9.45857 48.5528 8.65376 47.9483 8.04929C47.3438 7.44481 46.539 7.08246 45.6857 7.03061C42.9339 6.86654 35.901 7.11811 30.067 12.9522L19.2498 23.7781C19.0873 23.9408 18.8944 24.07 18.6821 24.1582C18.4697 24.2464 18.2421 24.2918 18.0121 24.292C17.5477 24.2925 17.1022 24.1084 16.7735 23.7803C16.4449 23.4522 16.26 23.007 16.2596 22.5426C16.2592 22.0782 16.4433 21.6327 16.7714 21.304L22.5814 15.4919C22.703 15.3695 22.7857 15.2139 22.8192 15.0447C22.8527 14.8754 22.8353 14.7001 22.7694 14.5406C22.7035 14.3812 22.5919 14.2448 22.4487 14.1486C22.3055 14.0524 22.137 14.0007 21.9645 14H16.2639C15.8028 13.9975 15.3459 14.0868 14.9197 14.2626C14.4934 14.4383 14.1064 14.697 13.781 15.0237L6.27792 22.5312C5.81778 22.9911 5.49489 23.57 5.3455 24.2032C5.1961 24.8363 5.22612 25.4986 5.43217 26.1156C5.63823 26.7326 6.01217 27.28 6.51202 27.6963C7.01188 28.1126 7.61787 28.3814 8.26198 28.4725L16.6773 29.6472L26.3482 39.3181L27.5229 47.7378C27.6133 48.3819 27.882 48.988 28.2987 49.4874C28.7154 49.9869 29.2635 50.3598 29.881 50.564C30.2407 50.6842 30.6174 50.7455 30.9967 50.7456C31.4559 50.7465 31.9107 50.6564 32.3349 50.4807C32.7592 50.305 33.1444 50.0471 33.4685 49.7219L40.976 42.2187C41.3018 41.8927 41.5598 41.5055 41.7355 41.0794C41.9112 40.6534 42.001 40.1968 41.9998 39.7359V34.0353C41.9995 33.8623 41.9479 33.6933 41.8516 33.5496C41.7553 33.4059 41.6186 33.294 41.4587 33.228C41.2988 33.162 41.123 33.1449 40.9534 33.1787C40.7837 33.2126 40.628 33.296 40.5057 33.4184L34.6935 39.2284C34.5236 39.3986 34.3203 39.5319 34.0965 39.62C33.8727 39.7081 33.6331 39.7491 33.3927 39.7405C33.1524 39.7319 32.9164 39.6738 32.6994 39.5699C32.4825 39.466 32.2893 39.3184 32.132 39.1365C31.8449 38.7893 31.6991 38.3467 31.7234 37.8968C31.7477 37.447 31.9404 37.0227 32.2632 36.7084L43.041 25.9306C48.8795 20.0944 49.1311 13.0615 48.967 10.3075V10.3119Z" fill="currentColor"/>
</symbol><symbol viewBox="0 0 56 56" fill="currentColor" id="brand-vertical-graph" xmlns="http://www.w3.org/2000/svg">
<path d="M50.75 45.5C50.75 45.9641 50.5656 46.4092 50.2374 46.7374C49.9092 47.0656 49.4641 47.25 49 47.25H7C6.53587 47.25 6.09075 47.0656 5.76256 46.7374C5.43437 46.4092 5.25 45.9641 5.25 45.5C5.25 45.0359 5.43437 44.5908 5.76256 44.2626C6.09075 43.9344 6.53587 43.75 7 43.75H8.75V29.75C8.75 29.2859 8.93437 28.8407 9.26256 28.5126C9.59075 28.1844 10.0359 28 10.5 28H15.75C16.2141 28 16.6592 28.1844 16.9874 28.5126C17.3156 28.8407 17.5 29.2859 17.5 29.75V43.75H21V19.25C21 18.7859 21.1844 18.3408 21.5126 18.0126C21.8408 17.6844 22.2859 17.5 22.75 17.5H29.75C30.2141 17.5 30.6593 17.6844 30.9874 18.0126C31.3156 18.3408 31.5 18.7859 31.5 19.25V43.75H35V8.75C35 8.28587 35.1844 7.84075 35.5126 7.51256C35.8407 7.18437 36.2859 7 36.75 7H45.5C45.9641 7 46.4092 7.18437 46.7374 7.51256C47.0656 7.84075 47.25 8.28587 47.25 8.75V43.75H49C49.4641 43.75 49.9092 43.9344 50.2374 44.2626C50.5656 44.5908 50.75 45.0359 50.75 45.5Z" fill="currentColor"/>
</symbol></svg>