<?xml version="1.0" encoding="utf-8"?><svg xmlns="http://www.w3.org/2000/svg" xmlns:xlink="http://www.w3.org/1999/xlink"><symbol viewBox="0 0 24 24" fill="none" id="announcement-01" xmlns="http://www.w3.org/2000/svg">
<path d="M18 20.9421H16L9 15.9421H8V20.9421H5L4 15.9421H3C2.44772 15.9421 2 15.4944 2 14.9421V8.94214C2 8.38985 2.44772 7.94214 3 7.94214H9L16 2.94214H18V20.9421ZM21 8.94214C21.5523 8.94214 22 9.38985 22 9.94214V13.9421C22 14.4944 21.5523 14.9421 21 14.9421H20V8.94214H21Z" fill="currentColor"/>
</symbol><symbol viewBox="0 0 24 24" fill="none" id="bank" xmlns="http://www.w3.org/2000/svg">
<path d="M22 22.0122H2V20.0122H22V22.0122ZM22 6.01221V8.01221H20V19.0122H4V8.01221H2V6.01221L12 2.01221L22 6.01221ZM8 17.0122H10V10.0122H8V17.0122ZM14 10.0122V17.0122H16V10.0122H14Z" fill="currentColor"/>
</symbol><symbol viewBox="0 0 24 24" fill="none" id="bar-chart-08" xmlns="http://www.w3.org/2000/svg">
<path d="M4 20H22V22H3C2.44772 22 2 21.5523 2 21V2H4V20ZM8 18H6V14H8V18ZM12 11V18H10V11H12ZM16 18H14V8H16V18ZM20 18H18V5H20V18Z" fill="currentColor"/>
</symbol><symbol viewBox="0 0 24 24" fill="none" id="bell-ringing-01" xmlns="http://www.w3.org/2000/svg">
<path fill-rule="evenodd" clip-rule="evenodd" d="M14.2218 20C14.2218 21.1043 13.3259 21.9996 12.2218 22H11.7765C10.6722 21.9997 9.77651 21.1044 9.77651 20V19.7773H14.2218V20ZM11.9992 2C22.5541 2.00027 15.3326 12.0004 21.9992 18.667H1.99917C8.66546 12.0003 1.44373 2 11.9992 2ZM2.17788 9.37012H2.16811L2.1769 9.36816L2.17788 9.37012ZM21.8292 9.37012H21.8185V9.36816L21.8292 9.37012ZM20.0089 2C21.7586 3.74968 22.328 6.08912 21.8185 9.36816L19.8488 9.05957C20.2587 6.42985 19.8687 4.68008 18.5988 3.41016L20.0089 2ZM5.39761 3.41016C4.12793 4.68005 3.73776 6.43006 4.14761 9.05957L2.1769 9.36816C1.66744 6.0892 2.23878 3.74965 3.98843 2L5.39761 3.41016Z" fill="currentColor"/>
</symbol><symbol viewBox="0 0 24 24" fill="none" id="book-open-02" xmlns="http://www.w3.org/2000/svg">
<path d="M2 7.2C2 6.0799 2 5.51984 2.21799 5.09202C2.40973 4.71569 2.71569 4.40973 3.09202 4.21799C3.51984 4 4.07989 4 5.2 4H5.6C7.84021 4 8.96031 4 9.81596 4.43597C10.5686 4.81947 11.1805 5.43139 11.564 6.18404C12 7.03968 12 8.15979 12 10.4V20H5.2C4.07989 20 3.51984 20 3.09202 19.782C2.71569 19.5903 2.40973 19.2843 2.21799 18.908C2 18.4802 2 17.9201 2 16.8V7.2Z" fill="currentColor"/>
<path d="M22 7.2C22 6.0799 22 5.51984 21.782 5.09202C21.5903 4.71569 21.2843 4.40973 20.908 4.21799C20.4802 4 19.9201 4 18.8 4H18.4C16.1598 4 15.0397 4 14.184 4.43597C13.4314 4.81947 12.8195 5.43139 12.436 6.18404C12 7.03968 12 8.15979 12 10.4V20H18.8C19.9201 20 20.4802 20 20.908 19.782C21.2843 19.5903 21.5903 19.2843 21.782 18.908C22 18.4802 22 17.9201 22 16.8V7.2Z" fill="currentColor"/>
</symbol><symbol viewBox="0 0 24 24" fill="none" id="briefcase-01" xmlns="http://www.w3.org/2000/svg">
<path fill-rule="evenodd" clip-rule="evenodd" d="M12 3.00008C12.8655 3.00008 13.4945 2.99195 14.0352 3.1368C15.4154 3.50665 16.4934 4.58468 16.8633 5.96493C17.0082 6.50559 17 7.13463 17 8.00008H21C21.5522 8.00008 21.9998 8.44795 22 9.00008V20.0001C22 20.5524 21.5523 21.0001 21 21.0001H3C2.44772 21.0001 2 20.5524 2 20.0001V9.00008C2.00018 8.44795 2.44783 8.00008 3 8.00008H7C7 7.13463 6.99185 6.50559 7.13672 5.96493C7.50664 4.58468 8.58458 3.50667 9.96484 3.1368C10.5055 2.99194 11.1345 3.00008 12 3.00008ZM12 5.00008C11.0058 5.00008 10.7047 5.0089 10.4824 5.06844C9.79234 5.25337 9.25335 5.79245 9.06836 6.48251C9.00881 6.70476 9 7.00593 9 8.00008H15C15 7.00594 14.9912 6.70476 14.9316 6.48251C14.7466 5.79244 14.2077 5.25336 13.5176 5.06844C13.2953 5.00891 12.9942 5.00008 12 5.00008Z" fill="currentColor"/>
</symbol><symbol viewBox="0 0 24 24" fill="none" id="building-04" xmlns="http://www.w3.org/2000/svg">
<path d="M17 12V2H7V8H3V22H11V18H13V22H21V12H17ZM7 20H5V18H7V20ZM7 16H5V14H7V16ZM7 12H5V10H7V12ZM11 16H9V14H11V16ZM11 12H9V10H11V12ZM11 8H9V6H11V8ZM15 16H13V14H15V16ZM15 12H13V10H15V12ZM15 8H13V6H15V8ZM19 20H17V18H19V20ZM19 16H17V14H19V16Z" fill="currentColor"/>
</symbol><symbol viewBox="0 0 24 24" fill="none" id="calendar-check-01" xmlns="http://www.w3.org/2000/svg">
<path d="M9 4H15V2H17V4H20C20.5523 4 21 4.44772 21 5V21C21 21.5523 20.5523 22 20 22H4C3.44772 22 3 21.5523 3 21V5C3 4.44772 3.44772 4 4 4H7V2H9V4ZM11 16.5996L9.2002 14.7998L8 16L11 19L15.7998 14.2002L14.5996 13L11 16.5996ZM5 10H19V6H17V7H15V6H9V7H7V6H5V10Z" fill="currentColor"/>
</symbol><symbol viewBox="0 0 24 24" fill="none" id="check-square" xmlns="http://www.w3.org/2000/svg">
<path d="M21 2C21.5523 2 22 2.44772 22 3V21C22 21.5523 21.5523 22 21 22H3C2.44772 22 2 21.5523 2 21V3C2 2.44772 2.44772 2 3 2H21ZM10 14.8574L6.5 11.1904L5 12.7617L10 18L19 8.57129L17.5 7L10 14.8574Z" fill="currentColor"/>
</symbol><symbol viewBox="0 0 24 24" fill="none" id="coins-stacked-02" xmlns="http://www.w3.org/2000/svg">
<path d="M9.64844 3C13.3759 3 16.3973 4.51102 16.3975 6.375V7.17969L16.8906 7.04785C18.4968 6.61646 20.5719 9.17572 21.5254 12.7646C22.4788 16.3538 21.9499 19.6134 20.3438 20.0449L16.7891 21C16.1405 21.013 15.4356 20.5833 14.7695 19.835C13.5203 20.5476 11.6831 21.0009 9.64844 21.001C6.17504 21.0008 3.27288 19.6872 2.89941 18V15.7109C2.42289 15.3108 2.10706 14.8587 2 14.375V10.25C2.00019 9.63659 2.32746 9.06126 2.89941 8.56543V6.375C2.8996 4.51111 5.92121 3.00013 9.64844 3ZM15.3486 18.9492C16.1324 19.9057 16.6711 19.9874 16.8535 19.9385L18.5527 19.4814C18.204 19.1963 17.8591 18.818 17.5303 18.3633L15.3486 18.9492ZM6.27441 19.3809C7.09293 19.6452 8.07071 19.8216 9.14258 19.8643V17.3691C9.01228 17.3729 8.88108 17.376 8.74902 17.376C7.87787 17.376 7.04279 17.293 6.27441 17.1426V19.3809ZM13.0049 16.8008C12.3937 16.9763 11.7229 17.1057 11.0107 17.1787C10.7331 17.2278 10.4477 17.2689 10.1553 17.2998V19.8643C11.2272 19.8216 12.2049 19.6452 13.0234 19.3809V16.8477C13.0172 16.8321 13.011 16.8164 13.0049 16.8008ZM3.91211 17.625C3.91212 17.8366 4.13097 18.3961 5.26172 18.9697V16.8936C4.76801 16.7459 4.31456 16.5683 3.91211 16.3652V17.625ZM14.0361 18.9697C14.0546 18.9603 14.0718 18.9489 14.0898 18.9395C14.0713 18.9111 14.0546 18.8814 14.0361 18.8525V18.9697ZM13.5859 15.4199C13.8969 16.4424 14.2981 17.3433 14.7354 18.0703L16.9629 17.4717C16.5309 16.7054 16.1467 15.8044 15.8477 14.8125L13.5859 15.4199ZM5.375 15.7559C6.19364 16.0202 7.1711 16.1967 8.24316 16.2393V13.6143C7.20381 13.5757 6.23022 13.4193 5.375 13.1719V15.7559ZM12.1006 13.2705C11.7391 13.3405 11.3632 13.3961 10.9756 13.4346C10.4308 13.5298 9.85433 13.592 9.25586 13.6143V16.2393C10.3279 16.1966 11.3054 16.0203 12.124 15.7559V13.4424C12.116 13.3848 12.1078 13.3276 12.1006 13.2705ZM3.0127 14C3.0127 14.2116 3.23123 14.771 4.3623 15.3447V12.8135C3.83601 12.5881 3.37996 12.323 3.0127 12.0273V14ZM13.0098 11.5713C12.9913 12.4208 13.0886 13.4031 13.3262 14.4453L15.5889 13.8379C15.3562 12.8281 15.2419 11.8535 15.2363 10.9727L13.0098 11.5713ZM6.27344 11.8809C7.09206 12.1453 8.0705 12.3216 9.14258 12.3643V9.74023C8.10293 9.70167 7.12882 9.5444 6.27344 9.29688V11.8809ZM12.3076 9.47461C11.6386 9.61864 10.9142 9.71208 10.1543 9.74023V12.3643C10.8128 12.3381 11.4355 12.2597 12.0078 12.1426C11.9712 11.115 12.0755 10.197 12.3076 9.47461ZM3.91113 10.125C3.91113 10.3366 4.1307 10.8961 5.26172 11.4697V8.93848C4.73517 8.71299 4.27849 8.44818 3.91113 8.15234V10.125ZM13.918 8.89062C13.7353 8.94008 13.3093 9.28004 13.1045 10.501L15.2861 9.91504C15.3457 9.35606 15.4573 8.85567 15.6182 8.43359L13.918 8.89062Z" fill="currentColor"/>
</symbol><symbol viewBox="0 0 24 24" fill="none" id="compass-03" xmlns="http://www.w3.org/2000/svg">
<path d="M12 2C17.5228 2 22 6.47715 22 12C22 17.5228 17.5228 22 12 22C6.47715 22 2 17.5228 2 12C2 6.47715 6.47715 2 12 2ZM10 10L7 17L14 14L17 7L10 10Z" fill="currentColor"/>
</symbol><symbol viewBox="0 0 24 24" fill="none" id="cpu-chip-01" xmlns="http://www.w3.org/2000/svg">
<path d="M11 4H13V2H15V4H19C19.5523 4 20 4.44772 20 5V9H22V11H20V13H22V15H20V19C20 19.5523 19.5523 20 19 20H15V22H13V20H11V22H9V20H5C4.44772 20 4 19.5523 4 19V15H2V13H4V11H2V9H4V5C4 4.44772 4.44772 4 5 4H9V2H11V4ZM8 16H16V8H8V16ZM14 14H10V10H14V14Z" fill="black"/>
</symbol><symbol viewBox="0 0 24 24" fill="none" id="database-02" xmlns="http://www.w3.org/2000/svg">
<path d="M12 2C6.95344 2 3 4.36538 3 7.38462V16.6154C3 19.6346 6.95344 22 12 22C17.0466 22 21 19.6346 21 16.6154V7.38462C21 4.36538 17.0466 2 12 2ZM19.5 12C19.5 12.925 18.7612 13.8683 17.4741 14.5885C16.0247 15.399 14.0803 15.8462 12 15.8462C9.91969 15.8462 7.97531 15.399 6.52594 14.5885C5.23875 13.8683 4.5 12.925 4.5 12V10.4C6.09938 11.8423 8.83406 12.7692 12 12.7692C15.1659 12.7692 17.9006 11.8385 19.5 10.4V12ZM17.4741 19.2038C16.0247 20.0144 14.0803 20.4615 12 20.4615C9.91969 20.4615 7.97531 20.0144 6.52594 19.2038C5.23875 18.4837 4.5 17.5404 4.5 16.6154V15.0154C6.09938 16.4577 8.83406 17.3846 12 17.3846C15.1659 17.3846 17.9006 16.4538 19.5 15.0154V16.6154C19.5 17.5404 18.7612 18.4837 17.4741 19.2038Z" fill="black"/>
</symbol><symbol viewBox="0 0 24 24" fill="none" id="download-02" xmlns="http://www.w3.org/2000/svg">
<path d="M21 21H3M18 11L12 17M12 17L6 11M12 17V3" stroke="#1A1A1A" stroke-width="2" stroke-linecap="round" stroke-linejoin="round"/>
</symbol><symbol viewBox="0 0 24 24" fill="none" id="edit-03" xmlns="http://www.w3.org/2000/svg">
<path fill-rule="evenodd" clip-rule="evenodd" d="M22 19.7774V22H9.77734V19.7774H22ZM15.3369 2.76173C16.3528 1.74612 17.9998 1.74606 19.0156 2.76173C20.0316 3.77768 20.0316 5.42547 19.0156 6.44142L6.86914 18.5879C6.5987 18.8583 6.46348 18.9939 6.30762 19.0967C6.16936 19.1879 6.01888 19.2595 5.86133 19.3106C5.68366 19.3681 5.49328 19.3894 5.11328 19.4317L2 19.7774L2.3457 16.665C2.38794 16.2849 2.40933 16.0947 2.4668 15.917C2.51785 15.7593 2.5904 15.6091 2.68164 15.4707C2.78442 15.3149 2.91924 15.1794 3.18945 14.9092L15.3369 2.76173Z" fill="currentColor"/>
</symbol><symbol viewBox="0 0 24 24" fill="none" id="file-05" xmlns="http://www.w3.org/2000/svg">
<path d="M20 7V21C20 21.5523 19.5523 22 19 22H5C4.44772 22 4 21.5523 4 21V3C4 2.44772 4.44772 2 5 2H14L20 7ZM7 16V18H15V16H7ZM7 14H17V12H7V14ZM13.5 7.00977H17.6602L13.5 3.5498V7.00977Z" fill="currentColor"/>
</symbol><symbol viewBox="0 0 24 24" fill="none" id="file-search-02" xmlns="http://www.w3.org/2000/svg">
<path d="M18 2C18.5523 2 19 2.44772 19 3V14H14V22H4C3.44772 22 3 21.5523 3 21V3C3 2.44772 3.44772 2 4 2H18ZM18 15C19.6569 15 21 16.3431 21 18C21 18.6475 20.7922 19.2451 20.4434 19.7354L22 21.293L21.293 22L19.7363 20.4434C19.246 20.7924 18.6478 21 18 21C16.3431 21 15 19.6569 15 18C15 16.3431 16.3431 15 18 15ZM18 16C16.8954 16 16 16.8954 16 18C16 19.1046 16.8954 20 18 20C19.1046 20 20 19.1046 20 18C20 16.8954 19.1046 16 18 16ZM6 14V16H10V14H6ZM6 12H14V10H6V12ZM6 8H16V6H6V8Z" fill="currentColor"/>
</symbol><symbol viewBox="0 0 24 24" fill="none" id="globe-04" xmlns="http://www.w3.org/2000/svg">
<path d="M12 2C10.0222 2 8.08879 2.58649 6.4443 3.6853C4.79981 4.78412 3.51809 6.3459 2.76121 8.17316C2.00433 10.0004 1.8063 12.0111 2.19215 13.9509C2.578 15.8907 3.53041 17.6725 4.92894 19.0711C6.32746 20.4696 8.10929 21.422 10.0491 21.8078C11.9889 22.1937 13.9996 21.9957 15.8268 21.2388C17.6541 20.4819 19.2159 19.2002 20.3147 17.5557C21.4135 15.9112 22 13.9778 22 12C21.9972 9.34869 20.9427 6.80678 19.068 4.93202C17.1932 3.05727 14.6513 2.0028 12 2ZM5.68173 17.6221L5.92404 17.4635C6.13563 17.3239 6.30946 17.1342 6.43007 16.9113C6.55068 16.6883 6.61434 16.439 6.61539 16.1856L6.63558 12.7019L8.65096 9.69231C8.66083 9.6999 8.67111 9.70696 8.68173 9.71346L10.5731 10.951C10.89 11.1747 11.28 11.2698 11.6644 11.2173L14.6923 10.8067C15.0657 10.7569 15.4078 10.5718 15.6538 10.2865L17.7856 7.80961C18.024 7.5303 18.1546 7.17491 18.1538 6.80769V6.19904C19.1943 7.2998 19.9197 8.66002 20.2541 10.1373C20.5886 11.6146 20.5197 13.1546 20.0548 14.5962L18.5029 13.1769C18.2871 12.9789 18.0193 12.8465 17.731 12.7954C17.4426 12.7443 17.1457 12.7766 16.875 12.8885L13.9462 14.1048C13.7013 14.2076 13.487 14.3717 13.3239 14.5814C13.1609 14.7911 13.0546 15.0392 13.0154 15.3019L12.7856 16.8587C12.7303 17.2333 12.8153 17.6153 13.0241 17.9312C13.2329 18.2472 13.551 18.4751 13.9173 18.5711L15.9808 19.1154L16.2077 19.3433C14.5227 20.31 12.556 20.6667 10.6389 20.3532C8.72166 20.0397 6.97104 19.0752 5.68173 17.6221Z" fill="currentColor"/>
</symbol><symbol viewBox="0 0 24 24" fill="none" id="graduation-hat-01" xmlns="http://www.w3.org/2000/svg">
<path d="M12.1261 3.47639L12.2513 3.49314L12.4075 3.53371C12.5562 3.5817 12.6774 3.64701 12.7315 3.67395L21.4975 8.0283C21.8054 8.18135 22 8.49423 22 8.8362C21.9997 9.17792 21.8052 9.4903 21.4975 9.64322L19.2727 10.7483V15.8277C19.2708 16.0487 19.2566 16.3028 19.1733 16.543C19.0854 16.7959 18.9419 17.0273 18.7534 17.2185C18.5147 17.4605 18.1987 17.6039 17.9659 17.7195L13.0574 20.1582C12.8661 20.2532 12.615 20.3874 12.3355 20.4396C12.1141 20.4809 11.8859 20.4809 11.6645 20.4396C11.385 20.3874 11.1339 20.2532 10.9426 20.1582L6.03409 17.7195C5.80128 17.6039 5.48528 17.4605 5.24663 17.2185C5.05814 17.0273 4.91459 16.7959 4.82671 16.543C4.7434 16.3028 4.72915 16.0487 4.72727 15.8277V10.7483L2.50249 9.64322C2.19484 9.4903 2.00028 9.17792 2 8.8362C2 8.49423 2.19468 8.18135 2.50249 8.0283L11.2685 3.67395C11.3407 3.63805 11.5319 3.53357 11.7487 3.49314L11.8739 3.47639C11.9578 3.46865 12.0422 3.46865 12.1261 3.47639ZM12.7315 13.9975C12.6592 14.0335 12.468 14.138 12.2513 14.1783C12.0853 14.2092 11.9147 14.2092 11.7487 14.1783C11.532 14.138 11.3408 14.0335 11.2685 13.9975L6.54545 11.6515V15.6195C6.54545 15.7923 6.54585 15.8815 6.54989 15.9459V15.9511C6.54989 15.9511 6.55344 15.9537 6.55522 15.9547C6.61136 15.987 6.69191 16.0275 6.8473 16.1046L11.7558 18.5425C11.8834 18.6058 11.9485 18.6381 11.9965 18.6589L12 18.6597L12.0035 18.6589C12.0515 18.6381 12.1166 18.6058 12.2442 18.5425L17.1527 16.1046C17.3081 16.0275 17.3886 15.987 17.4448 15.9547L17.4492 15.9511L17.4501 15.9459C17.4542 15.8815 17.4545 15.7923 17.4545 15.6195V11.6515L12.7315 13.9975Z" fill="currentColor"/>
</symbol><symbol viewBox="0 0 24 24" fill="none" id="headphones-01" xmlns="http://www.w3.org/2000/svg">
<path d="M12 1.99512C17.523 1.99538 22.0009 6.47302 22.001 11.9961V16.5957H21.999V21.0049C21.999 21.5572 21.5513 22.0049 20.999 22.0049H15.999C15.4467 22.0049 14.999 21.5572 14.999 21.0049V14.0049C14.999 13.4526 15.4467 13.0049 15.999 13.0049H20.001V11.9961C20.0009 7.57759 16.4184 3.99538 12 3.99512C7.58133 3.99512 3.99905 7.57743 3.99902 11.9961V13.0049H7.99902C8.55131 13.0049 8.99902 13.4526 8.99902 14.0049V21.0049C8.99902 21.5572 8.55131 22.0049 7.99902 22.0049H2.99902C2.44674 22.0049 1.99902 21.5572 1.99902 21.0049V11.9961C1.99905 6.47286 6.47676 1.99512 12 1.99512Z" fill="currentColor"/>
</symbol><symbol viewBox="0 0 24 24" fill="none" id="layers-three-01" xmlns="http://www.w3.org/2000/svg">
<path fill-rule="evenodd" clip-rule="evenodd" d="M21.3822 14.9995C22.2097 15.4206 22.2057 16.5942 21.3695 17.0073L12.5101 21.3804C12.189 21.5389 11.8108 21.5389 11.4896 21.3804L2.63124 17.0073C1.79484 16.5944 1.79032 15.4208 2.61757 14.9995C2.62209 15.0018 2.62666 15.0051 2.63124 15.0073L11.4896 19.3804C11.8108 19.5389 12.189 19.5389 12.5101 19.3804L21.3695 15.0073C21.3739 15.0051 21.3779 15.0017 21.3822 14.9995ZM21.3822 10.9995C22.2095 11.4206 22.2055 12.5942 21.3695 13.0073L12.5101 17.3804C12.189 17.5388 11.8108 17.5388 11.4896 17.3804L2.63124 13.0073C1.79484 12.5944 1.79032 11.4208 2.61757 10.9995C2.62203 11.0018 2.62673 11.0051 2.63124 11.0073L11.4896 15.3804C11.8108 15.5388 12.189 15.5388 12.5101 15.3804L21.3695 11.0073C21.3738 11.0051 21.378 11.0017 21.3822 10.9995ZM11.4896 2.61865C11.8108 2.4601 12.189 2.46015 12.5101 2.61865L21.3695 6.9917C22.2104 7.40687 22.2103 8.59204 21.3695 9.00732L12.5101 13.3804C12.1889 13.539 11.8109 13.539 11.4896 13.3804L2.63124 9.00732C1.79024 8.59214 1.79024 7.40688 2.63124 6.9917L11.4896 2.61865Z" fill="currentColor"/>
</symbol><symbol viewBox="0 0 24 24" fill="none" id="list" xmlns="http://www.w3.org/2000/svg">
<path d="M6 20H2V16H6V20ZM22 20H8V16H22V20ZM6 14H2V10H6V14ZM22 14H8V10H22V14ZM6 8H2V4H6V8ZM22 8H8V4H22V8Z" fill="currentColor"/>
</symbol><symbol viewBox="0 0 24 24" fill="none" id="lock-unlocked-01" xmlns="http://www.w3.org/2000/svg">
<path d="M12 2C14.5075 2.00002 16.4026 3.70981 16.8809 6H14.5742C14.1744 4.88782 13.217 4.00002 12 4C10.3826 4.00021 9.22168 5.56831 9.22168 7.14746V8H20C21.1046 8 22 8.89543 22 10V20C22 21.1046 21.1046 22 20 22H4C2.89558 21.9998 2 21.1045 2 20V10C2 8.89554 2.89558 8.00018 4 8H7V7.14746C7 4.30493 9.08853 2.00017 12 2ZM11.167 18H13.167V12H11.167V18Z" fill="currentColor"/>
</symbol><symbol viewBox="0 0 24 24" fill="none" id="message-check-circle" xmlns="http://www.w3.org/2000/svg">
<path fill-rule="evenodd" clip-rule="evenodd" d="M12.7781 3C17.8711 3.0004 22.0003 7.1298 22.0007 12.2227C22.0005 17.3157 17.8712 21.4439 12.7781 21.4443C11.6119 21.4443 10.4935 21.2277 9.46363 20.8311C9.37594 20.7973 9.32495 20.7771 9.28785 20.7637C9.28622 20.7631 9.28298 20.762 9.28199 20.7617C9.25227 20.764 9.21041 20.7684 9.13355 20.7764L4.17945 21.2891C3.96343 21.3114 3.73176 21.3357 3.5398 21.3379C3.35865 21.3401 3.02725 21.3299 2.70875 21.1357C2.33672 20.9087 2.08298 20.5301 2.01539 20.0996C1.95786 19.7313 2.07504 19.4205 2.14625 19.2539C2.22173 19.0775 2.33313 18.8726 2.43629 18.6816L4.01929 15.7529C4.08679 15.628 4.12281 15.5588 4.14722 15.5088C4.14631 15.5056 4.14538 15.5017 4.14429 15.498C4.12358 15.428 4.09153 15.332 4.03687 15.1699C3.7246 14.2434 3.55546 13.2514 3.55543 12.2227C3.55577 7.12955 7.6848 3 12.7781 3ZM11.6726 12.9004L9.51929 10.7998L8.08277 12.2002L11.6726 15.7002L17.4158 10.1006L15.9802 8.7002L11.6726 12.9004Z" fill="currentColor"/>
</symbol><symbol viewBox="0 0 24 24" fill="none" id="percent-03" xmlns="http://www.w3.org/2000/svg">
<path d="M21 2C21.5523 2 22 2.44772 22 3V21C22 21.5523 21.5523 22 21 22H3C2.44772 22 2 21.5523 2 21V3C2 2.44772 2.44772 2 3 2H21ZM6 16.7998L7.2002 18L18 7.2002L16.7998 6L6 16.7998ZM15.9004 14.4004C15.072 14.4004 14.4004 15.072 14.4004 15.9004C14.4006 16.7286 15.0721 17.4004 15.9004 17.4004C16.7286 17.4003 17.4002 16.7286 17.4004 15.9004C17.4004 15.072 16.7287 14.4005 15.9004 14.4004ZM8.09961 6.59961C7.27142 6.59974 6.59982 7.27144 6.59961 8.09961C6.59961 8.92796 7.27129 9.59948 8.09961 9.59961C8.92804 9.59961 9.59961 8.92804 9.59961 8.09961C9.5994 7.27136 8.92791 6.59961 8.09961 6.59961Z" fill="currentColor"/>
</symbol><symbol viewBox="0 0 24 24" fill="none" id="phone-call-01" xmlns="http://www.w3.org/2000/svg">
<path fill-rule="evenodd" clip-rule="evenodd" d="M4.53614 4.20886C5.08521 3.93122 5.73416 3.93117 6.28321 4.20886C6.55918 4.34854 6.81615 4.60608 7.33009 5.12L7.51856 5.30847C7.85671 5.64661 8.02617 5.81617 8.13673 5.98621C8.55342 6.62745 8.55361 7.45442 8.13673 8.09558C8.02617 8.26551 7.8565 8.43441 7.51856 8.77234C7.40827 8.88263 7.35286 8.93836 7.30665 9.00281C7.14235 9.23238 7.08522 9.56572 7.16407 9.83679C7.18631 9.913 7.21559 9.97411 7.27345 10.0946C7.94679 11.4969 8.86497 12.8112 10.0274 13.9735C11.1897 15.1358 12.504 16.0541 13.9063 16.7274C14.0268 16.7853 14.0878 16.8146 14.1641 16.8368C14.4352 16.9157 14.7684 16.8586 14.9981 16.6942C15.0626 16.648 15.1181 16.5927 15.2285 16.4823C15.5667 16.1442 15.7362 15.9747 15.9063 15.8641C16.5475 15.4474 17.3744 15.4472 18.0156 15.8641C18.1856 15.9747 18.3544 16.1443 18.6924 16.4823L18.8809 16.6708C19.3947 17.1846 19.6523 17.4417 19.792 17.7177C20.0696 18.2667 20.0697 18.9157 19.792 19.4647C19.6523 19.7407 19.3948 19.9977 18.8809 20.5116L18.7285 20.6649C18.2166 21.1768 17.9604 21.4332 17.6123 21.6288C17.2258 21.8459 16.6249 22.0022 16.1816 22.0009C15.7822 21.9997 15.5089 21.9214 14.9629 21.7665C12.0283 20.9335 9.25848 19.3627 6.94825 17.0526C4.63798 14.7424 3.0664 11.9725 2.23341 9.03796C2.07849 8.49217 2.00123 8.21852 2.00001 7.81921C1.99876 7.37603 2.15507 6.77595 2.37208 6.38953C2.56773 6.04126 2.82367 5.7846 3.33594 5.27234L3.48829 5.12C4.00238 4.60592 4.26008 4.34852 4.53614 4.20886ZM13.1338 6.12292C14.3057 6.3516 15.3832 6.92516 16.2275 7.76941C17.0718 8.61378 17.6454 9.69119 17.874 10.8632L18.0654 11.8446L16.1025 12.2274L15.9111 11.246C15.7587 10.4647 15.3763 9.74637 14.8135 9.18347C14.2506 8.62071 13.5322 8.23827 12.751 8.08582L11.7695 7.89441L12.1524 5.93152L13.1338 6.12292ZM13.0527 2.11023C15.3073 2.36073 17.4105 3.37054 19.0156 4.97351C20.6207 6.57658 21.6324 8.67822 21.8857 10.9325L21.9981 11.9266L20.0107 12.1493L19.8984 11.1561C19.6958 9.35263 18.8856 7.67105 17.6016 6.38855C16.3176 5.10645 14.6355 4.29891 12.832 4.09851L11.8379 3.98816L12.0586 1.99988L13.0527 2.11023Z" fill="currentColor"/>
</symbol><symbol viewBox="0 0 24 24" fill="none" id="presentation-chart-01" xmlns="http://www.w3.org/2000/svg">
<path d="M21 15.999C21 16.5513 20.5523 16.999 20 16.999H16.4434L18.8984 21.251L17.5996 22.001L14.7109 16.999H9.1875L6.29883 22.001L5 21.251L7.45508 16.999H4C3.44772 16.999 3 16.5513 3 15.999V3.99902H2V1.99902H22V3.99902H21V15.999ZM7 13.999H9V9.99902H7V13.999ZM11 13.999H13V6.99902H11V13.999ZM15 13.999H17V10.999H15V13.999Z" fill="currentColor"/>
</symbol><symbol viewBox="0 0 24 24" fill="none" id="rocket-01" xmlns="http://www.w3.org/2000/svg">
<path fill-rule="evenodd" clip-rule="evenodd" d="M22 1.99988C21.9337 5.10593 21.8566 8.08072 19.2891 10.6473L14.3574 15.578C14.2099 15.7218 14.1225 15.9162 14.1113 16.1219C14.1003 16.3276 14.1667 16.5296 14.2979 16.6884C14.3699 16.7716 14.4584 16.8391 14.5576 16.8866C14.6569 16.9341 14.765 16.9608 14.875 16.9647C14.9847 16.9686 15.0941 16.9502 15.1963 16.91C15.2987 16.8697 15.392 16.8082 15.4697 16.7303L18.8125 13.3934V17.2167C18.8125 17.4909 18.6995 17.7531 18.502 17.9432C17.2826 19.1159 16.1055 20.3355 14.9092 21.5311C14.7609 21.6799 14.5847 21.7984 14.3906 21.8788C14.1965 21.9592 13.9884 22.0003 13.7783 21.9999C13.6048 21.9998 13.4321 21.9718 13.2676 21.9169C12.9853 21.8234 12.7345 21.653 12.544 21.4247C12.3533 21.1962 12.2308 20.9186 12.1895 20.6239L11.6514 16.7714L7.22754 12.3475L3.37696 11.8094C3.08235 11.7678 2.80481 11.6454 2.57618 11.455C2.34755 11.2645 2.17629 11.0136 2.08204 10.7313C1.98788 10.4491 1.97466 10.1459 2.04297 9.85632C2.11136 9.5668 2.2593 9.30197 2.46973 9.09167C3.34732 8.21358 5.3776 6.21746 6.13379 5.47449C6.32069 5.29086 6.57003 5.18836 6.83204 5.18835H10.5566L7.27051 8.53015C7.1205 8.68043 7.03605 8.88424 7.03614 9.09656C7.03633 9.30902 7.12113 9.51286 7.27149 9.66296C7.42185 9.81305 7.62545 9.89753 7.8379 9.89734C7.94309 9.89724 8.04739 9.87616 8.14454 9.83582C8.2416 9.79547 8.33004 9.73638 8.4043 9.66199L13.3535 4.70886C15.8387 2.22401 18.761 2.06897 22 1.99988ZM7.03516 15.4491C7.02531 15.461 7.01641 15.4739 7.00587 15.4852C6.93424 15.562 6.84848 15.6242 6.75294 15.6678C6.10942 15.9611 4.68868 16.9053 4.43848 19.5624C7.09559 19.3122 8.04178 17.8914 8.33301 17.2479C8.37661 17.1524 8.43884 17.0666 8.51563 16.995C8.52691 16.9845 8.53895 16.9745 8.55079 16.9647L9.69337 18.1073C9.14243 19.1721 7.57339 21.2009 3.60059 21.201C3.38825 21.201 3.18433 21.1168 3.03419 20.9667C2.88409 20.8165 2.79981 20.6126 2.79981 20.4003C2.79996 16.4281 4.82765 14.8576 5.89258 14.3065L7.03516 15.4491Z" fill="currentColor"/>
</symbol><symbol viewBox="0 0 24 24" fill="none" id="search-md" xmlns="http://www.w3.org/2000/svg">
<path d="M9.71484 2C13.9754 2.0001 17.4296 5.45411 17.4297 9.71484C17.4297 11.3809 16.8999 12.9225 16.002 14.1836L21.9961 20.1777L20.1777 21.9971L14.1836 16.002C12.9225 16.8999 11.3809 17.4296 9.71484 17.4297C5.45417 17.4297 2 13.9757 2 9.71484C2.00013 5.45405 5.45425 2.00001 9.71484 2ZM9.71484 4.57129C6.8745 4.5713 4.57146 6.87439 4.57129 9.71484C4.57129 12.5554 6.8744 14.8584 9.71484 14.8584C12.5552 14.8583 14.8574 12.5554 14.8574 9.71484C14.8572 6.87446 12.5551 4.57141 9.71484 4.57129Z" fill="currentColor"/>
</symbol><symbol viewBox="0 0 24 24" fill="none" id="settings" xmlns="http://www.w3.org/2000/svg">
<path d="M19.6462 12.9792C19.689 12.6667 19.7104 12.3438 19.7104 12C19.7104 11.6667 19.689 11.3333 19.6355 11.0208L21.8094 9.375C22.0021 9.22917 22.0557 8.94792 21.9379 8.73958L19.8818 5.28125C19.7533 5.05208 19.4855 4.97917 19.2499 5.05208L16.6905 6.05208C16.1551 5.65625 15.5875 5.32292 14.9557 5.07292L14.5701 2.42708C14.5273 2.17708 14.3131 2 14.0561 2H9.94388C9.68687 2 9.4834 2.17708 9.44056 2.42708L9.05504 5.07292C8.42322 5.32292 7.84493 5.66667 7.3202 6.05208L4.76076 5.05208C4.52517 4.96875 4.25744 5.05208 4.12894 5.28125L2.08353 8.73958C1.95502 8.95833 1.99786 9.22917 2.21204 9.375L4.38595 11.0208C4.33241 11.3333 4.28957 11.6771 4.28957 12C4.28957 12.3229 4.31099 12.6667 4.36453 12.9792L2.19062 14.625C1.99786 14.7708 1.94431 15.0521 2.06211 15.2604L4.11823 18.7188C4.24673 18.9479 4.51446 19.0208 4.75005 18.9479L7.30949 17.9479C7.84493 18.3437 8.41251 18.6771 9.04433 18.9271L9.42986 21.5729C9.4834 21.8229 9.68687 22 9.94388 22H14.0561C14.3131 22 14.5273 21.8229 14.5594 21.5729L14.945 18.9271C15.5768 18.6771 16.1551 18.3437 16.6798 17.9479L19.2392 18.9479C19.4748 19.0312 19.7426 18.9479 19.8711 18.7188L21.9272 15.2604C22.0557 15.0312 22.0021 14.7708 21.7987 14.625L19.6462 12.9792ZM12 15.75C9.87963 15.75 8.14478 14.0625 8.14478 12C8.14478 9.9375 9.87963 8.25 12 8.25C14.1204 8.25 15.8552 9.9375 15.8552 12C15.8552 14.0625 14.1204 15.75 12 15.75Z" fill="currentColor"/>
</symbol><symbol viewBox="0 0 24 24" fill="none" id="shield-tick" xmlns="http://www.w3.org/2000/svg">
<path fill-rule="evenodd" clip-rule="evenodd" d="M12.0029 2.00987L20.4082 4.43174C20.5151 4.46263 20.5888 4.55971 20.5889 4.671V11.4982C20.5889 18.0837 12.9585 21.5779 12.0254 21.9806C11.9653 22.0064 11.8988 22.0069 11.8389 21.9806C10.9123 21.5737 3.41992 18.079 3.41992 11.4982V4.67003C3.42005 4.55915 3.49319 4.46293 3.59961 4.43174L11.8633 2.00987C11.9087 1.99665 11.9575 1.99677 12.0029 2.00987ZM11.0635 12.2052L8.9082 10.1046L7.47168 11.505L11.0635 15.0069L16.8096 9.4044L15.373 8.00401L11.0635 12.2052Z" fill="currentColor"/>
</symbol><symbol viewBox="0 0 24 24" fill="none" id="shuffle-01" xmlns="http://www.w3.org/2000/svg">
<path d="M18 15L21 18M21 18L18 21M21 18H18.5689C17.6297 18 17.1601 18 16.7338 17.8705C16.3564 17.7559 16.0054 17.5681 15.7007 17.3176C15.3565 17.0348 15.096 16.644 14.575 15.8626L14.3333 15.5M18 3L21 6M21 6L18 9M21 6H18.5689C17.6297 6 17.1601 6 16.7338 6.12945C16.3564 6.24406 16.0054 6.43194 15.7007 6.68236C15.3565 6.96523 15.096 7.35597 14.575 8.13744L9.42496 15.8626C8.90398 16.644 8.64349 17.0348 8.29933 17.3176C7.99464 17.5681 7.64357 17.7559 7.2662 17.8705C6.83994 18 6.37033 18 5.43112 18H3M3 6H5.43112C6.37033 6 6.83994 6 7.2662 6.12945C7.64357 6.24406 7.99464 6.43194 8.29933 6.68236C8.64349 6.96523 8.90398 7.35597 9.42496 8.13744L9.66667 8.5" stroke="#1A1A1A" stroke-width="2" stroke-linecap="round" stroke-linejoin="round"/>
</symbol><symbol viewBox="0 0 24 24" fill="none" id="sliders-04" xmlns="http://www.w3.org/2000/svg">
<path d="M6.5 13C8.45912 13 10.1243 14.2525 10.7422 16H22V19H10.7422C10.1243 20.7475 8.45912 22 6.5 22C4.01472 22 2 19.9853 2 17.5C2 15.0147 4.01472 13 6.5 13ZM6.5 15C5.11929 15 4 16.1193 4 17.5C4 18.8807 5.11929 20 6.5 20C7.88071 20 9 18.8807 9 17.5C9 16.1193 7.88071 15 6.5 15ZM17.5 2C19.9853 2 22 4.01472 22 6.5C22 8.98528 19.9853 11 17.5 11C15.5409 11 13.8757 9.7475 13.2578 8H2V5H13.2578C13.8757 3.2525 15.5409 2 17.5 2ZM17.5 4C16.1193 4 15 5.11929 15 6.5C15 7.88071 16.1193 9 17.5 9C18.8807 9 20 7.88071 20 6.5C20 5.11929 18.8807 4 17.5 4Z" fill="currentColor"/>
</symbol><symbol viewBox="0 0 24 24" fill="none" id="target-04" xmlns="http://www.w3.org/2000/svg">
<path d="M16 8V5L19 2L20 4L22 5L19 8H16ZM16 8L12 11.9999M22 12C22 17.5228 17.5228 22 12 22C6.47715 22 2 17.5228 2 12C2 6.47715 6.47715 2 12 2M17 12C17 14.7614 14.7614 17 12 17C9.23858 17 7 14.7614 7 12C7 9.23858 9.23858 7 12 7" stroke="#1A1A1A" stroke-width="2" stroke-linecap="round" stroke-linejoin="round"/>
</symbol><symbol viewBox="0 0 24 24" fill="none" id="trend-up-01" xmlns="http://www.w3.org/2000/svg">
<path d="M22 7L14.1314 14.8686C13.7354 15.2646 13.5373 15.4627 13.309 15.5368C13.1082 15.6021 12.8918 15.6021 12.691 15.5368C12.4627 15.4627 12.2646 15.2646 11.8686 14.8686L9.13137 12.1314C8.73535 11.7354 8.53735 11.5373 8.30902 11.4632C8.10817 11.3979 7.89183 11.3979 7.69098 11.4632C7.46265 11.5373 7.26465 11.7354 6.86863 12.1314L2 17M22 7H15M22 7V14" stroke="#1A1A1A" stroke-width="2" stroke-linecap="round" stroke-linejoin="round"/>
</symbol><symbol viewBox="0 0 24 24" fill="none" id="user-01" xmlns="http://www.w3.org/2000/svg">
<path d="M18 15C20.2091 15 22 16.7909 22 19V22H2V19C2 16.7909 3.79086 15 6 15H18ZM12.001 2C15.101 2.00018 17.6143 4.51345 17.6143 7.61328C17.6141 10.713 15.1009 13.2254 12.001 13.2256C8.90094 13.2256 6.38788 10.7131 6.3877 7.61328C6.3877 4.51334 8.90083 2 12.001 2Z" fill="currentColor"/>
</symbol>
<symbol viewBox="0 0 24 24" fill="none" id="file-02" xmlns="http://www.w3.org/2000/svg">
  <path d="M4.5 22C3.94772 22 3.5 21.5523 3.5 21V3C3.5 2.44772 3.94772 2 4.5 2H18.5C19.0523 2 19.5 2.44772 19.5 3V11H14.5V22H4.5ZM15.5 6H6.5V8H15.5V6ZM12.5 10H6.5V12H12.5V10ZM16.5 22C15.9477 22 15.5 21.5523 15.5 21V15.333H17V20.333H20V13.667H19.25V19.5H17.75V13C17.75 12.4477 18.1977 12 18.75 12H20.5C21.0523 12 21.5 12.4477 21.5 13V21C21.5 21.5523 21.0523 22 20.5 22H16.5ZM9.5 16V14H6.5V16H9.5Z" fill="currentColor"/>
</symbol>
<symbol viewBox="0 0 14 14" fill="none" id="star-01" xmlns="http://www.w3.org/2000/svg">
  <path d="M13.6708 2.40135L11.5494 0.280025C10.1058 1.7237 6.70281 2.65178 4.05116 0.000128997L1.88615 2.16514C4.5378 4.81679 8.2938 4.24277 9.73698 2.79959C4.68461 7.85196 2.94745e-05 11.8294 2.94745e-05 11.8294L2.12135 13.9508C2.12135 13.9508 6.09883 9.26617 11.1517 4.21331C9.70802 5.65698 9.66432 9.94332 11.7856 12.0646L13.9507 9.89962C11.8293 7.7783 12.2271 3.84502 13.6708 2.40135Z" fill="currentColor"/>
</symbol>
<symbol viewBox="0 0 17 14" fill="none" id="arrows-01" xmlns="http://www.w3.org/2000/svg">
  <path d="M16.3333 8.5L16.3333 5.5C14.2917 5.5 11.2292 3.75 11.2292 1.4024e-08L8.16737 1.02002e-08C8.16737 3.75 11.2292 6 13.2701 6C6.125 6 -1.03207e-08 5.5 -1.03207e-08 5.5L-6.67812e-09 8.5C-6.67812e-09 8.5 6.125 8 13.2708 8C11.2292 8 8.16737 11 8.16737 14L11.2292 14C11.2292 11 14.2917 8.5 16.3333 8.5Z" fill="currentColor"/>
</symbol>
<symbol viewBox="0 0 24 24" fill="none" id="share-02" xmlns="http://www.w3.org/2000/svg">
  <path d="M6 17C6 17.93 6 18.395 6.10222 18.7765C6.37962 19.8117 7.18827 20.6204 8.22354 20.8978C8.60504 21 9.07003 21 10 21H16.2C17.8802 21 18.7202 21 19.362 20.673C19.9265 20.3854 20.3854 19.9265 20.673 19.362C21 18.7202 21 17.8802 21 16.2V7.8C21 6.11984 21 5.27976 20.673 4.63803C20.3854 4.07354 19.9265 3.6146 19.362 3.32698C18.7202 3 17.8802 3 16.2 3H10C9.07003 3 8.60504 3 8.22354 3.10222C7.18827 3.37962 6.37962 4.18827 6.10222 5.22354C6 5.60504 6 6.07003 6 7M12 16L16 12L12 8M16 12H3" stroke="currentColor" stroke-width="2" stroke-linecap="round" stroke-linejoin="round"/>
</symbol>
<symbol viewBox="0 0 20 20" fill="none" id="external-link" xmlns="http://www.w3.org/2000/svg">
  <path d="M11 5H2V18H15V9H17V19C17 19.5523 16.5523 20 16 20H1C0.447715 20 2.0133e-09 19.5523 0 19V4C0 3.44772 0.447715 3 1 3H11V5ZM18.9961 0C19.5482 0.000212438 19.9961 0.447859 19.9961 1V6.07129C19.9959 6.96187 18.919 7.40779 18.2891 6.77832L16.46 4.94922L10.7402 10.6689L9.32617 9.25488L15.0459 3.53516L13.2178 1.70703C12.5878 1.07707 13.0339 -3.58718e-06 13.9248 0H18.9961Z" fill="currentColor"/>
</symbol>
<symbol fill="none" viewBox="0 0 24 24" id="arrow-left" xmlns="http://www.w3.org/2000/svg"><path d="M19 12H5m0 0 7 7m-7-7 7-7" stroke="currentColor" stroke-width="2" stroke-linecap="round" stroke-linejoin="round"/></symbol>
<symbol fill="none" viewBox="0 0 24 24" id="arrow-right" xmlns="http://www.w3.org/2000/svg"><path d="M5 12h14m0 0-7-7m7 7-7 7" stroke="currentColor" stroke-width="2" stroke-linecap="round" stroke-linejoin="round"/></symbol>
</svg>